<?xml version="1.0" encoding="UTF-8"?>
<!DOCTYPE svg PUBLIC "-//W3C//DTD SVG 1.1//EN" "http://www.w3.org/Graphics/SVG/1.1/DTD/svg11.dtd">
<!-- Creator: CorelDRAW X7 -->
<svg xmlns="http://www.w3.org/2000/svg" xml:space="preserve" width="158.292mm" height="34.7448mm" version="1.1" style="shape-rendering:geometricPrecision; text-rendering:geometricPrecision; image-rendering:optimizeQuality; fill-rule:evenodd; clip-rule:evenodd"
viewBox="0 0 15517 3406"
 xmlns:xlink="http://www.w3.org/1999/xlink">
 <defs>
  <style type="text/css">
   <![CDATA[
    .fil0 {fill:#149FD8}
   ]]>
  </style>
 </defs>
 <g id="Слой_x0020_1">
  <metadata id="CorelCorpID_0Corel-Layer"/>
  <g id="_764008240">
   <path class="fil0" d="M8888 0c474,0 902,193 1211,505l-479 479c-186,-189 -445,-307 -732,-307 -566,0 -1025,460 -1025,1026 0,566 459,1026 1025,1026 287,0 546,-118 732,-307l479 479c-309,312 -737,505 -1211,505 -940,0 -1703,-763 -1703,-1703 0,-941 763,-1703 1703,-1703zm-7185 0c593,0 1116,304 1421,764l-327 326 1 1 -1537 1538c134,64 284,100 442,100 408,0 760,-238 925,-583l496 496c-305,460 -828,764 -1421,764 -941,0 -1703,-763 -1703,-1703 0,-941 762,-1703 1703,-1703zm449 781c-136,-66 -288,-104 -449,-104 -566,0 -1026,460 -1026,1026 0,161 38,313 104,449l1371 -1371zm2963 -781c941,0 1703,762 1703,1703 0,940 -762,1703 -1703,1703 -940,0 -1703,-763 -1703,-1703 0,-941 763,-1703 1703,-1703zm0 677c567,0 1026,460 1026,1026 0,566 -459,1026 -1026,1026 -566,0 -1025,-460 -1025,-1026 0,-566 459,-1026 1025,-1026z"/>
   <path class="fil0" d="M11640 785l92 12c-14,54 -41,95 -80,125 -39,29 -89,44 -150,44 -76,0 -137,-24 -181,-71 -45,-47 -67,-113 -67,-198 0,-87 22,-156 67,-204 46,-49 104,-73 176,-73 70,0 127,24 171,71 45,48 67,115 67,201 0,5 0,13 -1,24l-390 0c4,57 20,101 49,131 29,31 66,46 109,46 33,0 61,-8 83,-26 23,-17 42,-44 55,-82zm-290 -142l291 0c-4,-44 -15,-77 -33,-99 -28,-34 -65,-51 -110,-51 -41,0 -75,13 -103,41 -27,27 -42,63 -45,109zm541 -212l366 0 0 451 56 0 0 221 -73 0 0 -148 -412 0 0 148 -73 0 0 -221 47 0c62,-85 92,-235 89,-451zm74 74c-7,170 -33,296 -79,377l282 0 0 -377 -203 0zm445 -74l89 0 0 400 247 -400 95 0 0 524 -89 0 0 -397 -246 397 -96 0 0 -524zm564 0l89 0 0 218 246 0 0 -218 89 0 0 524 -89 0 0 -232 -246 0 0 232 -89 0 0 -524zm1055 0l89 0 0 524 -89 0 0 -524zm-495 0l89 0 0 205 112 0c73,0 129,14 168,43 40,28 60,67 60,117 0,44 -17,81 -50,112 -33,31 -85,47 -158,47l-221 0 0 -524zm89 451l93 0c56,0 96,-7 120,-21 24,-13 36,-35 36,-64 0,-23 -9,-43 -27,-61 -18,-17 -57,-26 -117,-26l-105 0 0 172zm633 -451l89 0 0 400 246 -400 96 0 0 524 -89 0 0 -397 -246 397 -96 0 0 -524zm307 -193l60 0c-5,41 -20,73 -45,95 -25,23 -59,34 -101,34 -42,0 -75,-11 -100,-33 -25,-23 -40,-55 -45,-96l60 0c5,22 14,39 28,50 13,12 32,17 55,17 26,0 47,-5 60,-16 14,-11 23,-28 28,-51zm-3313 1556c0,-96 27,-168 81,-215 44,-38 99,-58 164,-58 72,0 131,24 176,71 46,47 69,112 69,195 0,67 -10,120 -30,158 -21,39 -50,69 -89,90 -38,22 -80,32 -126,32 -73,0 -132,-23 -178,-70 -45,-47 -67,-115 -67,-203zm90 0c0,67 15,117 44,151 30,33 67,49 111,49 44,0 81,-16 110,-50 29,-33 44,-84 44,-152 0,-65 -15,-114 -44,-147 -30,-33 -66,-50 -110,-50 -44,0 -81,16 -111,50 -29,33 -44,83 -44,149zm504 -262l414 0 0 524 -89 0 0 -450 -236 0 0 450 -89 0 0 -524zm903 355l92 12c-14,53 -41,94 -80,124 -39,29 -89,44 -149,44 -77,0 -137,-23 -182,-71 -45,-46 -67,-112 -67,-197 0,-88 22,-156 68,-205 45,-48 104,-73 176,-73 69,0 126,24 171,72 44,47 66,114 66,200 0,6 0,14 0,24l-390 0c3,57 19,101 48,132 30,30 66,45 110,45 32,0 60,-8 83,-25 23,-17 41,-45 54,-82zm-290 -143l291 0c-4,-44 -15,-77 -33,-99 -28,-34 -65,-51 -110,-51 -40,0 -75,14 -102,41 -28,27 -43,64 -46,109zm494 513l0 -725 81 0 0 69c19,-26 40,-46 64,-60 24,-13 53,-20 88,-20 44,0 84,12 118,35 34,23 60,55 77,97 17,42 26,87 26,137 0,54 -9,102 -29,145 -19,42 -47,75 -83,98 -37,23 -75,34 -116,34 -29,0 -56,-6 -79,-19 -24,-12 -43,-28 -58,-47l0 256 -89 0zm81 -460c0,68 14,117 41,149 27,32 60,48 98,48 40,0 73,-16 101,-49 28,-34 42,-85 42,-155 0,-67 -13,-116 -41,-149 -27,-34 -60,-50 -98,-50 -37,0 -71,18 -100,53 -29,35 -43,86 -43,153zm822 193c-33,29 -65,48 -95,60 -30,11 -63,17 -98,17 -57,0 -102,-14 -133,-42 -31,-28 -46,-64 -46,-107 0,-26 6,-49 17,-70 12,-21 28,-38 46,-51 19,-13 41,-23 64,-29 18,-5 44,-9 79,-13 72,-9 125,-19 159,-31 0,-12 0,-20 0,-23 0,-36 -8,-61 -25,-76 -23,-20 -57,-30 -101,-30 -42,0 -73,7 -93,22 -20,15 -35,41 -44,78l-87 -12c8,-37 21,-67 39,-90 18,-23 45,-41 79,-53 34,-12 74,-19 119,-19 45,0 81,6 109,16 28,11 49,24 62,40 13,16 22,36 28,60 2,16 4,43 4,82l0 118c0,82 2,134 5,156 4,22 11,43 22,63l-93 0c-9,-19 -14,-41 -17,-66zm-7 -196c-32,13 -81,24 -145,33 -37,5 -63,11 -78,18 -15,6 -27,16 -35,28 -8,13 -12,27 -12,42 0,24 9,43 27,59 18,16 44,24 78,24 35,0 65,-8 92,-23 26,-15 46,-35 58,-61 10,-20 15,-49 15,-88l0 -32zm158 -262l423 0 0 74 -167 0 0 450 -89 0 0 -450 -167 0 0 -74zm464 262c0,-96 26,-168 80,-215 45,-38 100,-58 165,-58 72,0 131,24 176,71 46,47 69,112 69,195 0,67 -10,120 -30,158 -21,39 -50,69 -89,90 -38,22 -80,32 -126,32 -73,0 -132,-23 -178,-70 -45,-47 -67,-115 -67,-203zm90 0c0,67 15,117 44,151 30,33 66,49 111,49 44,0 81,-16 110,-50 29,-33 44,-84 44,-152 0,-65 -15,-114 -44,-147 -30,-33 -66,-50 -110,-50 -45,0 -81,16 -111,50 -29,33 -44,83 -44,149zm504 463l0 -725 81 0 0 69c19,-26 40,-46 64,-60 24,-13 53,-20 87,-20 45,0 84,12 118,35 35,23 60,55 78,97 17,42 26,87 26,137 0,54 -10,102 -29,145 -19,42 -47,75 -84,98 -36,23 -75,34 -115,34 -30,0 -56,-6 -80,-19 -23,-12 -42,-28 -57,-47l0 256 -89 0zm81 -460c0,68 13,117 40,149 27,32 60,48 99,48 39,0 73,-16 101,-49 28,-34 42,-85 42,-155 0,-67 -14,-116 -41,-149 -27,-34 -60,-50 -98,-50 -38,0 -71,18 -100,53 -29,35 -43,86 -43,153zm-3519 1169l87 12c-10,59 -34,106 -73,140 -39,34 -88,50 -145,50 -71,0 -129,-23 -172,-70 -44,-46 -65,-113 -65,-200 0,-57 9,-106 28,-149 18,-42 47,-74 85,-95 38,-21 80,-31 125,-31 57,0 103,14 139,43 36,28 59,69 70,122l-86 13c-8,-35 -23,-61 -44,-79 -21,-18 -46,-27 -76,-27 -44,0 -81,16 -109,48 -28,32 -41,83 -41,152 0,70 13,121 40,153 27,32 62,48 105,48 35,0 64,-11 88,-32 23,-21 38,-54 44,-98zm162 -332l205 0c50,0 87,4 112,12 24,9 45,24 62,46 18,23 27,50 27,81 0,25 -5,47 -16,65 -10,19 -26,35 -46,47 24,8 45,24 61,46 16,23 24,49 24,80 -3,50 -21,86 -53,110 -32,24 -79,36 -140,36l-236 0 0 -523zm89 221l94 0c38,0 64,-2 78,-6 14,-4 26,-12 37,-24 11,-12 17,-27 17,-43 0,-28 -10,-47 -29,-58 -20,-11 -53,-17 -100,-17l-97 0 0 148zm0 230l117 0c50,0 84,-6 103,-18 18,-12 28,-32 29,-60 0,-17 -5,-33 -16,-47 -11,-14 -25,-23 -42,-27 -18,-4 -45,-6 -84,-6l-107 0 0 158zm849 -451l0 523 -89 0 0 -203 -51 0c-31,0 -55,4 -70,12 -15,8 -38,34 -67,77l-78 114 -110 0 96 -140c29,-43 58,-68 87,-73 -50,-7 -88,-25 -112,-55 -25,-29 -37,-64 -37,-102 0,-46 16,-82 48,-111 32,-28 79,-42 139,-42l244 0zm-89 73l-126 0c-53,0 -87,9 -102,25 -16,17 -23,36 -23,58 0,31 11,54 33,69 23,14 63,22 120,22l98 0 0 -174zm338 213l0 -69c38,-1 63,-2 77,-5 13,-2 26,-10 38,-23 12,-13 18,-30 18,-49 0,-24 -7,-43 -23,-57 -16,-15 -37,-22 -62,-22 -50,0 -85,30 -105,88l-85 -14c26,-98 90,-146 190,-146 56,0 100,15 132,45 31,31 47,67 47,109 0,43 -20,77 -62,102 27,14 46,32 60,54 13,22 19,47 19,77 0,47 -17,85 -51,114 -34,30 -82,44 -143,44 -120,0 -189,-52 -208,-158l84 -18c7,33 22,59 46,77 23,19 49,28 79,28 30,0 55,-9 75,-26 20,-16 30,-38 30,-64 0,-21 -7,-38 -19,-53 -13,-15 -26,-25 -40,-29 -14,-3 -40,-5 -77,-5 -3,0 -9,0 -20,0zm347 -286l89 0 0 399 246 -399 95 0 0 523 -88 0 0 -397 -247 397 -95 0 0 -523z"/>
  </g>
 </g>
</svg>
