<?xml version="1.0" encoding="UTF-8"?>
<!-- Generator: Adobe Illustrator 18.1.1, SVG Export Plug-In . SVG Version: 6.00 Build 0)  -->
<!DOCTYPE svg PUBLIC "-//W3C//DTD SVG 1.1//EN" "http://www.w3.org/Graphics/SVG/1.1/DTD/svg11.dtd">
<svg version="1.1" id="Layer_1" xmlns="http://www.w3.org/2000/svg" xmlns:xlink="http://www.w3.org/1999/xlink" x="0px" y="0px" viewBox="0 0 32 32" enable-background="new 0 0 32 32" xml:space="preserve">
<g>
	<circle fill="#00AEBE" cx="16" cy="16" r="15.8"/>
	<g>
		<path fill="#168E69" d="M10,28.4c-0.1-0.4-0.2-0.6-0.4-1c-0.2-0.4-0.1-1,0-1.4c0-0.1,0-0.3,0-0.4c0.2,0,0.3-0.1,0.3-0.3    c0-0.2-0.1-0.4-0.2-0.5c0-0.2,0.1-0.5,0.2-0.7c0.2-0.5,0.8-0.8,0.8-1.3c0-0.3,0.1-0.6,0.2-1c0.2-0.1,0.3-0.2,0.3-0.5    c0.1-0.4,0.2-0.8,0.2-1.1c0-0.1,0.1-0.2,0-0.3c0-0.2,0-0.3-0.1-0.5c-0.1-0.4-0.7-0.7-1.1-0.8c0,0.1-0.1,0.1-0.2,0.1l-0.4,0    c-0.1,0-0.2,0-0.3-0.1c-0.1,0-0.1,0-0.2,0c0,0,0,0-0.1,0c-0.2,0.2-0.6,0.1-0.6-0.2c0-0.2-0.1-0.4-0.3-0.6c0,0-0.1-0.1-0.1-0.2    c-0.2-0.1-0.3-0.1-0.5-0.2c0,0,0,0,0,0C7.6,17.1,7.3,17,7,17.1c0,0-0.1,0-0.1,0c-0.1-0.1-0.1-0.1-0.2-0.2    c-0.2-0.1-0.4-0.2-0.7-0.2c-0.2,0-0.4,0.1-0.5,0.3c-0.2,0.1-0.4,0.3-0.5,0.5c-0.1,0.3-0.2,0.7-0.3,1c-0.1,0-0.3-0.1-0.4-0.1    c-0.1,0-0.2,0.1-0.2,0.2c0,0.2,0,0.3,0,0.5c0,0,0,0,0,0c0,0,0,0.1,0,0.1c0,0-0.1,0-0.1,0.1c-0.3,0.3-0.4,0.8-0.5,1.2    c0,0-0.1,0.1-0.1,0.2c0,0,0,0.1,0,0.1c0,0,0,0,0,0c0,0,0,0,0,0c-0.7,0.7,0.1,1.6,0.9,2c0.2,0.3,0.5,0.6,0.8,0.8c0,0,0,0,0,0.1    c0.2,0,0.4,0.1,0.6,0.1c0.1,0,0.2,0.1,0.2,0.1c0,0,0,0,0,0c0.2,0.1,0.2,0.2,0.2,0.4c0.3,0.4,0.4,1,0.5,1.5c0,0,0,0.1,0,0.1    c0,0.2,0.1,0.3,0.1,0.5c0.5,1.2,1.1,2.3,2.3,2.9C9.7,29.6,10.2,29,10,28.4z"/>
		<path fill="#168E69" d="M28,15.1c0.2,0,0.4-0.3,0.2-0.5c0,0-0.1,0-0.1-0.1c0.1-0.1,0.1-0.3,0.1-0.5c0-0.2,0-0.4,0.1-0.6    c0.1-0.1,0.1-0.1,0.2-0.2c0.1,0.1,0.1,0.2,0.2,0.3c0.1,0.1,0.1,0.1,0.2,0.1c0.2,0.2,0.3,0.4,0.4,0.7c0.1,0.3,0.5,0.2,0.6,0    c0-0.2,0-0.4,0-0.6c0.2,0.2,0.5,0,0.4-0.3c-0.1-0.2-0.1-0.5-0.2-0.7c0-0.3-0.3-0.3-0.5-0.2c-0.1-0.1-0.1-0.1-0.2-0.2    c0,0,0.1,0,0.1,0c0.6-0.2,0.6-0.7,0.3-1.1c0,0,0,0,0-0.1c0-0.3,0-0.6,0-0.9c0,0,0.1-0.1,0.1-0.2c0-0.3,0-0.6,0-1    c0-0.1,0-0.3,0-0.4c-1.1-2-2.5-3.8-4.3-5.1c-0.8,0.1-1.6,0.2-2.4,0.2c-0.2-0.1-0.4-0.1-0.6-0.1c-0.2,0-0.4,0-0.6,0.1    c-0.1,0-0.3,0-0.4,0c-0.1,0-0.3,0-0.4,0c-0.1,0-0.2-0.1-0.3-0.2c-0.1-0.1-0.2-0.1-0.3-0.1c0,0.1-0.1,0.2-0.3,0.2    c-0.1,0-0.2,0-0.3,0c0,0.1,0,0.2-0.1,0.2c-0.5,0.4-1.1,0.7-1.7,0.9c-0.4,0.4-0.8,0.9-1.1,1.4c0,0-0.1,0-0.1-0.1    c0.1-0.2-0.1-0.5-0.3-0.4c-0.1,0-0.3,0.1-0.4,0.2c-0.2,0-0.4,0-0.6,0c-0.6,0.2-0.9,0.7-1.1,1.2c-0.2,0.5-0.3,1-0.2,1.5    C14.6,9,15,8.9,15,8.6c0-0.1,0-0.2,0-0.3c0.1,0,0.2-0.1,0.2-0.2c0-0.2,0.1-0.3,0.1-0.4c0,0.1,0.1,0.2,0.2,0.2    c-0.3,0.5-0.5,1.1-0.6,1.7c0,0.2,0,0.3,0.1,0.5c-0.1,0.3-0.2,0.6-0.2,1c-0.1,0.1-0.2,0.3-0.3,0.5c-0.1,0.1-0.1,0.1-0.1,0.2    c-0.1,0.2-0.1,0.3,0.1,0.4c0,0,0,0,0,0c0,0.2,0.4,0.3,0.5,0.1c0,0,0,0,0,0c0.2,0.4,0.7,0.5,1,0.3c0.2-0.1,0.4-0.3,0.4-0.6    c0.1-0.1,0.3-0.2,0.4-0.3c0,0,0.1,0.1,0.1,0.1c0.1,0.1,0.2,0.1,0.3,0.1c0.1,0.1,0.3,0.1,0.4,0c0.1-0.1,0.2-0.3,0.2-0.4    c0,0,0-0.1,0.1-0.1c0,0,0,0.1,0,0.1c0,0.4,0.5,0.5,0.5,0.1c0-0.2,0-0.5,0.1-0.7c0-0.1,0-0.1-0.1-0.2c0.1-0.1,0.3-0.1,0.4-0.2    c0,0,0,0,0,0c0.1,0.1,0.3,0.1,0.4,0.1c0.5-0.1,0.8-0.3,1.3,0.1c0,0,0.1,0.1,0.1,0.1c0,0-0.1,0-0.1,0c0,0,0,0-0.1,0    c0.1,0.1,0.1,0.3,0,0.4c0.1,0.1,0,0.3,0,0.4c-0.1,0.1-0.3,0.2-0.5,0c0,0,0,0-0.1-0.1c0,0,0,0,0,0c0,0-0.1,0-0.1-0.1    c-0.1,0-0.2-0.1-0.3-0.3c0,0-0.1,0-0.1,0c-0.3-0.1-0.7-0.1-0.8,0.3c-0.1,0.1-0.1,0.3,0,0.4c0,0,0,0,0,0c0,0,0.1,0.1,0.1,0.1    c0,0,0,0,0,0c0,0,0.1,0,0.1,0c0.3,0.1,0.6,0.3,0.8,0.6c0.1,0.1,0.1,0.3,0,0.4c0.1,0.1,0.3,0.2,0.4,0.3c0,0,0,0.1,0,0.1    c0.1,0.2,0.2,0.4,0.4,0.7c0.1,0.1,0.2,0.2,0.2,0.2c0,0,0.1,0.1,0.1,0.1c0.1,0.3,0.3,0.6,0.5,0.8c0.3,0.3,0.7,0.5,0.7,1    c0,0,0,0,0,0c-0.2-0.4-0.6-0.8-1-1.1c-0.3-0.2-0.5-0.4-0.7-0.7c-0.2-0.3-0.2-0.7-0.5-0.8c-0.1,0-0.1,0-0.2-0.1    c-0.2-0.2-0.4-0.3-0.7-0.2c-0.3-0.1-0.7-0.1-1-0.1c-0.6,0-1.2,0.1-1.8,0.3c-0.3-0.2-0.6-0.2-0.8,0c-0.3-0.1-0.6,0-0.7,0.2    c0,0.1-0.1,0.1-0.1,0.2c-0.1,0.1-0.2,0.2-0.2,0.3c-0.1,0-0.2,0.1-0.2,0.1c-0.1,0-0.3,0-0.4,0.1c-0.2,0.1-0.3,0.3-0.3,0.5    c0,0.1,0.1,0.2,0.2,0.3c-0.1,0.2-0.2,0.3-0.2,0.5c-0.1,0.2,0,0.3,0.1,0.4c0,0,0,0,0,0c-0.1,0.2-0.2,0.4-0.2,0.6    c-0.1,0.3,0,0.7,0.2,0.9c0,0,0,0.1,0,0.1c0.3,0.7,1.1,1,1.8,1c0.2,0,0.4-0.1,0.6-0.1c0.1,0,0.3-0.1,0.4-0.2c0.1,0,0.1,0,0.2-0.1    c0.1,0,0.3,0,0.4,0c0.2,0,0.4,0.1,0.6,0.1c0.4,0.5,0.6,1,0.8,1.7c0,0,0,0.1,0.1,0.1c0.1,0.5,0,0.9,0.1,1.4c0,0,0,0.1,0,0.1    c0,0.4,0.2,0.8,0.5,1.3c0.2,0.6,0.5,1.1,1.1,1.4c0.4,0.2,0.9-0.1,1-0.5c0.2-0.9,0.2-1.8,0.4-2.7c0.2-0.9,0.6-1.7,0.9-2.6    c0.3-0.9,0.3-1.6,0-2.3c0.1,0.2,0.4,0.1,0.5-0.1c-0.3,0-0.5-0.3-0.3-0.5c0.5-0.5,1-1.1,1.4-1.7c0.2-0.8-0.6-1.7-1.3-2.3    c0.1,0,0.2,0.1,0.3,0.1c0.4,0.2,1.4,0.4,1.7,0.8c0.4,0.5,0.7,0.8,1.1,0.9c0.2,0.6,0.5,0.9,1,1.2C27.1,14.9,27.4,15.2,28,15.1z"/>
		<path fill="#168E69" d="M30.9,20.4c-0.1,0-0.1-0.1-0.2-0.1c-0.1,0-0.2,0-0.3-0.1c-0.2-0.1-0.5-0.2-0.6-0.2c-0.1,0-0.2,0-0.3,0.1    c-0.1,0-0.2,0-0.2,0.1c0,0,0,0-0.1,0c0,0-0.1,0-0.1,0c0,0,0,0,0,0c0,0.1-0.1,0.1-0.1,0.2c0,0.1,0,0.3-0.1,0.4    c-0.1,0.1-0.1,0.1-0.2,0.2c-0.1,0.1-0.2,0.3-0.3,0.4c-0.1,0.1-0.2,0.3-0.3,0.4c-0.1,0.1-0.2,0.3-0.3,0.4c-0.1,0.1-0.2,0.1-0.3,0.1    c-0.1,0.1-0.2,0.1-0.3,0.2c0,0-0.1,0-0.1,0c-0.1,0.1-0.2,0.2-0.3,0.3c0,0,0,0,0,0c0,0,0,0.1,0,0.1c0,0.1,0,0.2-0.1,0.3    c0,0,0,0.1,0,0.1c0,0,0,0,0,0c0,0.1,0,0.2-0.1,0.2c0.4,0.9,0.7,1.9,0.9,2.9c0.2-0.2,0.4-0.5,0.6-0.7c0-0.1,0-0.2,0.1-0.3    c0,0,0.1,0,0.1,0.1c1.2-1.5,2.1-3.3,2.6-5.2C31.1,20.4,31,20.4,30.9,20.4z"/>
		<path fill="#168E69" d="M22.6,20c-0.3,0.4-0.3,1-0.3,1.5c0,0.1,0,0.1,0.1,0.2c0.1-0.5,0.4-1,0.6-1.4c0,0,0-0.1,0,0    C23,20,22.7,19.8,22.6,20z"/>
		<path fill="#168E69" d="M28.6,19.4c0.2-0.1,0.4-0.1,0.7-0.1c0.1,0,0.3-0.1,0.2-0.3l0-0.1c0-0.1-0.1-0.2-0.2-0.2    c-0.1,0-0.2-0.1-0.3-0.1c0,0,0,0,0,0c0.1-0.1,0-0.3-0.1-0.3c0,0,0,0,0,0c0.2-0.1,0.1-0.5-0.2-0.4c-0.1,0-0.1,0-0.2,0    c-0.2,0-0.2,0.3-0.1,0.4c-0.1,0.1-0.2,0.2-0.1,0.3c0,0,0,0,0,0c0,0.1,0,0.1,0,0.2c0,0.1,0.1,0.1,0.2,0.2c0,0,0,0-0.1,0    C28.1,19.1,28.4,19.5,28.6,19.4z"/>
		<path fill="#168E69" d="M27.7,16.7c0-0.1-0.2-0.1-0.3-0.1c-0.1,0-0.2,0.2-0.1,0.3c0.1,0.2,0.1,0.3,0.2,0.5    c0.1,0.1,0.2,0.1,0.3,0.1c0.1-0.1,0.1-0.2,0.1-0.3c0,0,0-0.1-0.1-0.1C27.8,16.9,27.8,16.8,27.7,16.7z"/>
		<path fill="#168E69" d="M28.4,17.1C28.4,17.1,28.4,17.1,28.4,17.1c0.4,0,0.3-0.6,0-0.5c0,0,0,0-0.1,0C28,16.6,28.1,17.1,28.4,17.1    z"/>
		<path fill="#168E69" d="M28.2,16.2c-0.1-0.2-0.3-0.3-0.5-0.3c-0.3,0-0.3,0.5,0,0.5c0,0,0,0,0,0c0,0,0,0,0,0c0,0,0,0,0,0    c0,0,0,0,0,0C28,16.7,28.3,16.5,28.2,16.2z"/>
		<path fill="#168E69" d="M6.4,15.4C6.5,15.5,6.4,15.4,6.4,15.4c-0.1,0-0.1-0.1-0.1-0.1c-0.1,0-0.3,0.1-0.3,0.2    c0,0.1,0.1,0.2,0.2,0.3c0,0,0.1,0,0.1,0c0.1,0,0.1,0,0.2,0C6.6,15.9,6.6,15.5,6.4,15.4z"/>
		<path fill="#168E69" d="M7.1,16.4c0.3,0,0.3-0.5,0-0.5C6.8,15.9,6.8,16.4,7.1,16.4z"/>
		<path fill="#168E69" d="M7,15.5c0.1-0.1,0.1-0.2,0.1-0.3c0,0,0-0.1-0.1-0.1c0,0,0-0.1,0,0c0-0.1-0.1-0.2-0.3-0.2    c-0.1,0-0.3,0.1-0.2,0.3c0,0.2,0.1,0.3,0.2,0.4C6.8,15.6,6.9,15.6,7,15.5z"/>
		<path fill="#168E69" d="M7.5,15.9L7.5,15.9c0,0.4,0.5,0.3,0.5,0l0-0.1C7.9,15.5,7.4,15.6,7.5,15.9z"/>
		<path fill="#168E69" d="M4.9,5.4c0.1,0,0.2,0,0.3,0c0.1,0,0.1-0.1,0.2-0.2C5.4,5,5.1,4.7,4.9,4.9c0,0,0,0,0,0C4.8,5,4.8,5,4.8,5    C4.7,5.2,4.8,5.3,4.9,5.4z"/>
		<path fill="#168E69" d="M13.3,3.6c-0.2,0-0.4,0-0.6,0c-0.6-0.3-1.3,0-2,0.2c-0.1,0-0.2-0.1-0.4-0.1c-0.2,0-0.5,0.1-0.7,0.1    c0,0,0,0-0.1,0c-0.1,0-0.3-0.1-0.4-0.1c0,0-0.1-0.1-0.2-0.1c0,0,0,0,0,0c-0.1,0-0.2,0-0.3,0c-0.1,0-0.2,0-0.2,0.1c0,0-0.1,0-0.1,0    c-0.1,0-0.2,0-0.3,0c-0.1,0-0.2,0.1-0.2,0.2c0,0,0,0.1,0,0.1c-0.1,0-0.2,0.1-0.3,0.1c-0.1,0-0.2,0-0.2,0.1c0,0,0,0-0.1,0.1    C6.9,4.4,6.7,4.5,6.5,4.6c0,0,0,0,0,0c0.1-0.1,0-0.4-0.2-0.4l-0.1,0c0,0-0.1,0-0.1,0c0-0.1-0.1-0.1-0.2-0.1    c-0.2,0-0.3,0.3-0.2,0.4c0,0-0.1-0.1-0.2-0.1C5.3,4.5,5.3,5,5.6,5c0.2,0,0.2-0.2,0.1-0.4c0,0,0.1,0.1,0.2,0.1c0,0,0.1,0,0.1,0    c0,0.1,0.1,0.1,0.2,0.1C6.1,4.8,6.1,4.9,6.1,5C6,5,6,5,6,5L5.9,5C5.5,5,5.3,5.3,5.3,5.7c0,0,0,0.1,0,0.1C5.1,5.9,4.9,6.1,4.9,6.3    c0,0,0,0,0,0c-0.1,0-0.1,0-0.2,0C4.5,6.5,4.3,6.6,4.2,6.6c-0.1,0-0.2,0-0.4,0.1C3.7,6.8,3.6,6.9,3.5,6.9c0,0,0,0,0,0    C3.5,7,3.4,7,3.4,7c0,0,0,0,0,0c-0.1,0-0.2,0-0.4,0.1c-0.8,1.1-1.4,2.4-1.9,3.7c0,0.2,0,0.4-0.1,0.7c-0.1,0.7,0,1.4,0.2,2.2    c0,0.1,0.1,0.2,0.1,0.3c0,0,0,0,0,0c0.1,0,0.1,0.1,0.2,0.1c0,0,0.1,0,0.1,0c0.8,0.4,1.4,1.2,1.9,1.9c0.1,0.1,0.3,0.1,0.4,0.2    c0.1,0,0.2,0.1,0.2,0.1c0.4,0.2,0.8,0.4,1.1,0.3c0,0,0,0,0,0c0,0,0,0,0,0c0.2,0.2,0.5-0.1,0.4-0.3c0.1-0.1,0-0.3,0-0.4    c-0.1-0.1-0.3-0.2-0.4-0.3c0-0.1-0.1-0.1-0.1-0.2c0,0,0,0,0.1-0.1c-0.3-0.1-0.4-0.6-0.4-0.9c0-0.3,0.1-0.6,0.3-0.8    c0-0.1,0.1-0.2,0.2-0.2c0,0,0.1,0,0.1,0c0,0,0,0,0,0c0,0,0,0,0.1,0c0.1,0,0.2,0,0.3,0.1c0.3,0.1,0.6,0.1,0.9,0    c0.2,0.1,0.5,0.1,0.6-0.1c0-0.1,0.1-0.1,0-0.2c0,0,0,0,0,0c0.4-0.2,0.8-0.4,1.2-0.6c0.2-0.6,0.9-1.2,1.5-1.2    c0-0.3,0.1-0.6,0.2-0.8c0-0.5,0.3-0.9,0.6-1.4C11,8,10.3,6.9,8.8,7.1c0,0,0,0-0.1,0c0,0-0.1,0-0.1,0C8.5,7.2,8.3,7.3,8.2,7.5    c0.1,0,0.1,0.1,0.2,0.2C8.5,8,8.6,8.2,8.6,8.6c0,0.1-0.2,0.3-0.3,0.3C8.1,8.9,8,8.8,7.9,8.6c0-0.1-0.1-0.1-0.1-0.2    c-0.1,0-0.1,0-0.2,0c-0.1,0-0.2,0-0.2-0.1C7.3,8.5,7,8.5,7,8.2C6.9,8,6.8,7.5,7,7.3c-0.2-0.1-0.4,0-0.5,0c0,0,0,0-0.1,0    c0.3-0.1,0.5-0.4,0.4-0.7C6.9,6.6,7,6.6,7,6.5c0.1,0,0.2,0,0.3-0.1c0.1-0.1,0.2-0.1,0.3-0.2c0.1,0,0.1,0.2,0.1,0.3    c0,0.3,0.4,0.3,0.5,0c0-0.1,0-0.3,0-0.4c0.1,0,0.1-0.1,0.1-0.1c0,0,0,0,0,0c0,0,0,0,0.1-0.1c0-0.1,0.1-0.1,0.1-0.2c0,0,0,0,0,0    c0.1-0.1,0.1-0.2,0-0.2c0.1,0,0.2,0,0.2,0C9,5.7,9.2,5.8,9.5,5.8c0,0,0,0,0,0C9.6,5.8,9.7,5.9,9.8,6c0,0,0,0,0,0c0,0,0,0,0,0.1    c0,0,0,0,0,0c0,0,0,0,0,0c0.1,0.2,0.3,0.4,0.6,0.5c0,0.1,0,0.1,0.1,0.2c0.1,0.1,0.2,0.3,0.3,0.4c0.1,0.2,0.3,0.4,0.5,0.5    c0.2,0.1,0.4,0,0.4-0.2c0-0.2,0-0.3,0-0.5c0.3-0.1,0.4-0.4,0.4-0.7c0-0.5,0.6-1,1-1.2c0.3-0.2,0.4-0.6,0.2-0.9    C13.6,4,13.6,3.6,13.3,3.6z"/>
		<path fill="#168E69" d="M17.4,31.7c2.4-0.2,4.7-1,6.7-2.1c-0.9-0.4-1.8-0.3-2.7-0.1c-0.5,0.1-1,0.2-1.5,0.3c-0.4,0-0.7,0.1-1.1,0    c-0.2,0-0.3,0.1-0.3,0.2c-0.1,0-0.2,0-0.2,0c0,0,0,0,0,0.1c-0.1,0.1-0.2,0.2-0.2,0.2c-0.4,0.5-1,0.8-1.6,0.4c-0.1,0-0.2,0-0.2,0.1    c-0.1,0-0.1,0-0.1,0c-0.1,0-0.2,0.1-0.3,0.1c-0.3,0-0.6,0.1-0.8,0.1c0,0,0,0,0,0c-0.1,0-0.1,0-0.1,0.1c-0.2,0.1-0.3,0.2-0.4,0.3    c-0.1,0-0.2,0.1-0.3,0.2c-0.1,0-0.2,0.1-0.4,0.1C14.8,31.8,16.1,31.8,17.4,31.7z"/>
	</g>
</g>
</svg>