<?xml version="1.0" encoding="UTF-8"?>
<!-- Generator: Adobe Illustrator 16.0.0, SVG Export Plug-In . SVG Version: 6.00 Build 0)  -->
<!DOCTYPE svg PUBLIC "-//W3C//DTD SVG 1.1//EN" "http://www.w3.org/Graphics/SVG/1.1/DTD/svg11.dtd">
<svg version="1.1" id="Layer_1" xmlns="http://www.w3.org/2000/svg" xmlns:xlink="http://www.w3.org/1999/xlink" x="0px" y="0px" width="32px" height="32px" viewBox="0 0 32 32" enable-background="new 0 0 32 32" xml:space="preserve">
<g>
	<path fill="#02709A" d="M16.017,32C24.801,32,32,24.801,32,16.016C32,7.2,24.801,0,16.017,0C7.201,0,0.001,7.199,0.001,16.016   C0.001,24.801,7.2,32,16.017,32L16.017,32z"/>
	<path fill="#E9E8E9" d="M15.985,6.009h-3.996l3.996-4.024l0.029-1.983c-0.736,0-1.475,0.058-2.154,0.142L9.978,3.997V1.163   C8.53,1.758,7.199,2.552,5.979,3.516v0.481L5.726,3.742c-0.709,0.595-1.39,1.275-1.984,1.984l0.255,0.282H3.515   c-0.964,1.19-1.758,2.552-2.353,3.997h2.834l-3.854,3.854C0.058,14.54,0,15.277,0,16.016h1.983l3.996-4.025v4.025h3.998V11.99   l4.023,4.025h1.984v-2.014l-3.996-3.996h3.996V6.009L15.985,6.009z"/>
	<path fill="#C33C2D" d="M14.966,0.027l-5.98,5.98V1.614c-0.68,0.34-1.36,0.737-2.012,1.161v3.231L5.188,4.193   c-0.34,0.34-0.682,0.652-0.992,1.021L5.981,7H2.778C2.354,7.623,1.957,8.303,1.617,8.984h4.364L0.03,14.936   c0,0.369-0.028,0.709-0.028,1.078h0.992l5.979-6.009v6.009h2.012v-6.009l6.01,6.009h0.992v-1.021L9.979,8.984h6.008V7.001h-5.98   l6.01-6.009V0C15.647,0,15.308,0.027,14.966,0.027L14.966,0.027z"/>
	<path fill="#E9E8E9" d="M24.008,7.993l0.283,0.51h0.566l-0.283,0.481l0.283,0.511h-0.566l-0.283,0.51l-0.283-0.51h-0.596   l0.313-0.511l-0.313-0.481h0.596L24.008,7.993z M10.998,21.002l0.567,0.992h1.162l-0.567,1.021l0.567,0.991h-1.162l-0.567,0.991   l-0.567-0.991H9.269l0.567-0.991l-0.567-1.021h1.162L10.998,21.002z M18.99,14.001l0.313,0.51h0.566l-0.283,0.481l0.283,0.511   h-0.566l-0.313,0.481l-0.283-0.481h-0.566l0.283-0.511l-0.283-0.481h0.566L18.99,14.001z M27.012,13.009l0.283,0.482h0.566   l-0.283,0.51l0.283,0.51h-0.566l-0.283,0.481l-0.283-0.481h-0.596l0.283-0.51l-0.283-0.51h0.596L27.012,13.009z M24.008,23.016   l0.283,0.481h0.566l-0.283,0.51l0.283,0.511h-0.566l-0.283,0.481l-0.283-0.481h-0.596l0.313-0.511l-0.313-0.51h0.596L24.008,23.016   z"/>
</g>
</svg>