<?xml version="1.0" encoding="UTF-8"?>
<!-- Generator: Adobe Illustrator 16.0.0, SVG Export Plug-In . SVG Version: 6.00 Build 0)  -->
<!DOCTYPE svg PUBLIC "-//W3C//DTD SVG 1.1//EN" "http://www.w3.org/Graphics/SVG/1.1/DTD/svg11.dtd">
<svg version="1.1" id="Layer_1" xmlns="http://www.w3.org/2000/svg" xmlns:xlink="http://www.w3.org/1999/xlink" x="0px" y="0px" width="32px" height="32px" viewBox="0 0 32 32" enable-background="new 0 0 32 32" xml:space="preserve">
<g>
	<path fill="#E9E8E9" d="M16.016,32C24.801,32,32,24.801,32,16.014C32,7.2,24.801,0,16.016,0C7.2,0,0,7.199,0,16.014   C0,24.801,7.199,32,16.016,32L16.016,32z"/>
	<polygon fill="#BE3530" points="19.018,18.99 20.01,20.01 16.496,20.01 16.496,24.007 16.016,24.007 15.504,24.007 15.504,20.01    12.018,20.01 13.009,18.99 9.014,16.014 9.607,14.54 9.014,13.009 10.742,13.009 12.018,11.989 14.455,14.993 13.009,10.997    14.001,10.997 16.016,7.993 17.998,10.997 19.018,10.997 17.572,14.993 20.01,11.989 21.257,13.009 23.016,13.009 22.42,14.54    23.016,16.014  "/>
	<path fill="#BE3530" d="M7.001,29.223V2.777C2.777,5.67,0,10.516,0,16.014C0,21.484,2.777,26.359,7.001,29.223L7.001,29.223z"/>
	<path fill="#BE3530" d="M24.999,2.777v26.445C29.223,26.359,32,21.484,32,16.014C32,10.516,29.223,5.669,24.999,2.777L24.999,2.777   z"/>
</g>
</svg>