<?xml version="1.0" encoding="UTF-8"?>
<!-- Generator: Adobe Illustrator 16.0.0, SVG Export Plug-In . SVG Version: 6.00 Build 0)  -->
<!DOCTYPE svg PUBLIC "-//W3C//DTD SVG 1.1//EN" "http://www.w3.org/Graphics/SVG/1.1/DTD/svg11.dtd">
<svg version="1.1" id="Layer_1" xmlns="http://www.w3.org/2000/svg" xmlns:xlink="http://www.w3.org/1999/xlink" x="0px" y="0px" width="32px" height="32px" viewBox="0 0 32 32" enable-background="new 0 0 32 32" xml:space="preserve">
<g>
	<path fill="#BE3530" d="M16.016,32C24.801,32,32,24.801,32,16.013C32,7.199,24.801,0,16.016,0C7.2,0,0,7.199,0,16.013   C0,24.801,7.199,32,16.016,32L16.016,32z"/>
	<path fill="#E9E8E9" d="M31.49,11.989H17.006V0.029C16.666,0,16.326,0,16.016,0c-2.523,0-4.904,0.595-7.029,1.615V11.99H0.511   C0.171,13.265,0,14.625,0,16.015c0,1.36,0.17,2.721,0.511,3.997h8.476v10.373C11.111,31.434,13.492,32,16.016,32   c0.312,0,0.65,0,0.99-0.027V20.012h14.482C31.829,18.736,32,17.375,32,16.015C32,14.625,31.829,13.265,31.49,11.989L31.49,11.989z"/>
	<path fill="#177298" d="M31.716,13.008H15.986V0c-2.125,0-4.139,0.425-5.98,1.162v11.847H0.284C0.114,13.972,0,14.964,0,16.013   c0,1.02,0.114,2.012,0.284,2.977h9.722v11.848C11.848,31.574,13.859,32,15.986,32V18.99h15.73C31.915,18.025,32,17.033,32,16.013   C32,14.964,31.915,13.972,31.716,13.008L31.716,13.008z"/>
</g>
</svg>