<?xml version="1.0" encoding="iso-8859-1"?>
<!-- Generator: Adobe Illustrator 19.0.0, SVG Export Plug-In . SVG Version: 6.00 Build 0)  -->
<svg version="1.1" id="Capa_1" xmlns="http://www.w3.org/2000/svg" xmlns:xlink="http://www.w3.org/1999/xlink" x="0px" y="0px"
	 viewBox="0 0 216.208 216.208" style="enable-background:new 0 0 216.208 216.208;" xml:space="preserve">
<path d="M182.616,0l-0.64,0.306c-12.256,5.839-24.527,8.8-36.475,8.8c-11.94,0-23.909-2.958-35.572-8.792l-0.211-0.105h-0.236
	c-24.046,0-47.937,5.49-70.664,16.309L14.66,27.312v85.896h22.696l5.424-23.886L62.43,75.312l61.695-0.128
	c-10.818,8.521-43.09,39.55-56.247,62.067c-14.876,25.46-14.986,54.494-14.89,73.708c0.008,1.475-0.327,2.894-0.327,4.249v1h93v-1
	c0-1.531,0.127-3.799,0.04-6.67c-0.371-12.203-0.95-34.919,2.04-54.706c1.449-9.598,5.378-30.454,15.129-62.307
	c8.838-28.873,21.656-53.021,38.054-71.773l0.625-0.702L182.616,0z"/>
<g>
</g>
<g>
</g>
<g>
</g>
<g>
</g>
<g>
</g>
<g>
</g>
<g>
</g>
<g>
</g>
<g>
</g>
<g>
</g>
<g>
</g>
<g>
</g>
<g>
</g>
<g>
</g>
<g>
</g>
</svg>
