<?xml version="1.0" encoding="iso-8859-1"?>
<!-- Generator: Adobe Illustrator 19.0.0, SVG Export Plug-In . SVG Version: 6.00 Build 0)  -->
<svg version="1.1" id="Layer_1" xmlns="http://www.w3.org/2000/svg" xmlns:xlink="http://www.w3.org/1999/xlink" x="0px" y="0px"
	 viewBox="0 0 512 512" style="enable-background:new 0 0 512 512;" xml:space="preserve">
<g>
	<g>
		<path d="M135.943,186.227c-38.473,0-69.773,31.3-69.773,69.775s31.3,69.775,69.773,69.775c38.474,0,69.775-31.3,69.775-69.775
			S174.416,186.227,135.943,186.227z M161.708,209.6c5.942,3.314,11.184,7.731,15.448,12.978l-20.559,11.869
			c-0.948-0.907-1.951-1.756-3.01-2.534L161.708,209.6z M135.942,202.907c3.453,0.001,6.826,0.344,10.096,0.975l-8.123,22.316
			c-0.653-0.043-1.31-0.072-1.974-0.072c-0.663,0-1.318,0.029-1.969,0.072l-8.123-22.317
			C129.119,203.249,132.491,202.907,135.942,202.907z M110.18,209.599l8.121,22.313c-1.06,0.778-2.064,1.626-3.011,2.534
			l-20.56-11.869C98.994,217.329,104.237,212.912,110.18,209.599z M82.85,256c0-6.689,1.256-13.087,3.523-18.987l20.559,11.869
			c-0.311,1.267-0.543,2.563-0.686,3.888l-23.373,4.121C82.868,256.593,82.85,256.299,82.85,256z M85.766,273.319l23.385-4.124
			c0.585,1.183,1.243,2.323,1.974,3.412l-15.246,18.17C91.469,285.707,88.008,279.797,85.766,273.319z M127.605,308.433
			c-6.84-1.084-13.25-3.477-18.963-6.917l15.259-18.185c1.195,0.529,2.432,0.981,3.704,1.351V308.433z M135.942,269.194
			c-7.273,0.001-13.192-5.918-13.192-13.194s5.918-13.194,13.192-13.194c7.275,0,13.194,5.918,13.194,13.194
			S143.217,269.194,135.942,269.194z M144.286,308.433v-23.752c1.271-0.37,2.508-0.822,3.703-1.351l15.259,18.185
			C157.535,304.956,151.126,307.349,144.286,308.433z M176.011,290.776l-15.246-18.17c0.729-1.088,1.388-2.227,1.972-3.41
			l23.383,4.124C183.879,279.796,180.418,285.705,176.011,290.776z M165.641,252.767c-0.143-1.322-0.375-2.618-0.686-3.884
			l20.559-11.869c2.268,5.901,3.523,12.298,3.523,18.986c0,0.298-0.018,0.593-0.022,0.89L165.641,252.767z"/>
	</g>
</g>
<g>
	<g>
		<path d="M135.943,153.712c-56.402,0-102.288,45.886-102.288,102.288c0,56.402,45.887,102.288,102.288,102.288
			S238.231,312.402,238.231,256C238.231,199.598,192.344,153.712,135.943,153.712z M135.943,341.608
			c-47.204,0-85.607-38.403-85.607-85.607s38.403-85.607,85.607-85.607c47.204,0,85.607,38.403,85.607,85.607
			S183.147,341.608,135.943,341.608z"/>
	</g>
</g>
<g>
	<g>
		<path d="M480.336,166.561H238.322c-25.473-29.15-61.97-46.042-100.759-46.496c-0.538-0.007-1.074-0.009-1.611-0.009
			c-74.076,0-134.906,59.787-135.938,134.011c-0.51,36.694,13.387,71.278,39.133,97.385c25.751,26.11,60.127,40.492,96.797,40.492
			h344.394c17.458,0,31.663-14.203,31.663-31.663V198.224C511.999,180.765,497.795,166.561,480.336,166.561z M495.319,360.281
			h-0.001c0,8.262-6.72,14.982-14.982,14.982H135.943c-32.17,0-62.328-12.615-84.919-35.523
			c-22.587-22.903-34.779-53.246-34.332-85.44c0.906-65.118,54.268-117.562,119.263-117.562c0.467,0,0.945,0.002,1.413,0.008
			c35.193,0.411,68.237,16.252,90.658,43.46c1.585,1.923,3.946,3.036,6.437,3.036h245.874c8.262,0,14.982,6.72,14.982,14.982
			V360.281z"/>
	</g>
</g>
<g>
	<g>
		<path d="M464.516,205.689H291.725c-3.148,0-5.886,1.745-7.306,4.318h-0.001l-0.011,0.021c-0.009,0.017-0.018,0.032-0.027,0.048
			l-37.976,68.974c-1.458,2.648-1.368,5.877,0.232,8.441l38.014,60.865l0.007-0.004c1.474,2.355,4.084,3.927,7.067,3.927h172.791
			c4.607,0,8.341-3.734,8.341-8.341V214.03C472.856,209.423,469.122,205.689,464.516,205.689z M283.384,314.836l-20.005-32.031
			l20.005-36.335V314.836z M300.064,222.37h26.517v26.621h-26.517V222.37z M326.583,335.595h-26.517v-26.621h26.517V335.595z
			 M326.583,292.292h-26.517v-26.621h26.517V292.292z M369.78,335.595h-26.517v-26.621h26.517V335.595z M369.78,292.292h-26.517
			v-26.621h26.517V292.292z M369.78,248.991h-26.517V222.37h26.517V248.991z M412.977,335.595h-26.516v-26.621h26.516V335.595z
			 M412.977,292.294h-26.516v-26.621h26.516V292.294z M412.977,248.991h-26.516V222.37h26.516V248.991z M456.175,335.595h-26.517
			v-26.621h26.517V335.595z M456.175,292.292h-26.517v-26.621h26.517V292.292z M456.175,248.991h-26.517V222.37h26.517V248.991z"/>
	</g>
</g>
<g>
	<g>
		<circle cx="312.713" cy="322.812" r="8.341"/>
	</g>
</g>
<g>
	<g>
		<circle cx="356.084" cy="279.441" r="8.341"/>
	</g>
</g>
<g>
	<g>
		<circle cx="356.64" cy="236.071" r="8.341"/>
	</g>
</g>
<g>
	<g>
		<circle cx="442.825" cy="236.616" r="8.341"/>
	</g>
</g>
<g>
</g>
<g>
</g>
<g>
</g>
<g>
</g>
<g>
</g>
<g>
</g>
<g>
</g>
<g>
</g>
<g>
</g>
<g>
</g>
<g>
</g>
<g>
</g>
<g>
</g>
<g>
</g>
<g>
</g>
</svg>
