<?xml version="1.0" encoding="utf-8"?>
<!-- Svg Vector Icons : http://www.onlinewebfonts.com/icon -->
<!DOCTYPE svg PUBLIC "-//W3C//DTD SVG 1.1//EN" "http://www.w3.org/Graphics/SVG/1.1/DTD/svg11.dtd">
<svg version="1.1" xmlns="http://www.w3.org/2000/svg" xmlns:xlink="http://www.w3.org/1999/xlink" x="0px" y="0px" viewBox="0 0 1000 1000" enable-background="new 0 0 1000 1000" xml:space="preserve">
<metadata> Svg Vector Icons : http://www.onlinewebfonts.com/icon </metadata>
<g><g transform="translate(0.000000,512.000000) scale(0.100000,-0.100000)"><path d="M4626.6,5016.8c-1264.1-130.4-2271.2-600.4-3111.5-1448.3C742.1,2785.8,285.6,1851.6,124.4,721.8c-32.6-226.4-32.6-982.2,0-1208.5c95.9-673.3,299.3-1283.3,602.4-1812.8c237.9-410.5,452.7-694.4,788.4-1034c780.7-788.4,1736-1262.2,2881.3-1425.3c222.5-32.6,980.3-30.7,1208.5,0c880.5,124.7,1674.6,447,2359.5,961.1c243.6,184.2,658,587,859.4,836.4c448.9,556.3,809.5,1296.8,961.1,1977.8C9878.9-565.4,9900-364,9900,117.5c0,500.7-34.5,794.2-142,1210.4c-128.5,504.5-381.7,1074.2-661.8,1494.3c-494.9,742.4-1143.3,1308.3-1937.5,1699.6c-483.4,235.9-932.3,376-1467.5,458.5C5497.6,5009.1,4791.6,5034.1,4626.6,5016.8z M5484.1,3848.6c1258.4-165,2336.5-938,2892.8-2071.7c915-1866.5,145.8-4120.5-1716.9-5035.5c-1761-863.2-3871.1-239.8-4891.6,1448.3C1202.5-874.2,1083.6,328.5,1451.9,1374c188,531.4,481.5,991.8,890.1,1402.3c594.7,592.7,1329.4,957.2,2160,1072.3C4753.3,3883.1,5223.2,3883.1,5484.1,3848.6z"/><path d="M4540.3,3522.5c-205.3-32.6-372.1-67.1-400.9-84.4c-15.4-11.5,0-97.8,59.5-320.4c78.6-283.9,86.3-305,126.6-299.3c23,3.8,42.2,1.9,42.2-3.8c0-15.4,157.3-594.7,165-608.1c3.8-5.8,51.8-3.8,107.4,3.8c55.6,7.7,142,21.1,193.7,26.9l90.2,11.5v326.1c0,310.8,1.9,324.2,38.4,324.2c36.5,0,38.4,13.4,38.4,326.1v326.1l-147.7-1.9C4770.5,3547.4,4630.5,3535.9,4540.3,3522.5z"/><path d="M5810.2,3133.1c-44.1-166.9-80.6-308.8-80.6-316.5s15.3-21.1,34.5-28.8c32.6-13.4,30.7-32.6-46-318.4c-46-168.8-78.7-312.7-72.9-322.3c5.8-7.7,21.1-15.3,32.6-15.3c13.4,0,90.2-28.8,170.7-65.2l149.6-65.2l157.3,278.1c140,243.6,163.1,274.3,199.5,266.6c36.5-9.6,61.4,21.1,197.6,257.1c86.3,145.8,155.4,274.3,155.4,283.9c0,26.9-431.6,226.4-629.2,291.6c-99.8,30.7-182.2,57.5-184.2,57.5C5892.7,3436.1,5854.3,3299.9,5810.2,3133.1z"/><path d="M3092,2971.9c-168.8-113.2-439.3-328-489.2-389.4c-23-26.9,1.9-59.5,203.3-260.9c201.4-203.3,230.2-224.4,255.1-199.5c26.8,26.9,55.6,3.8,262.8-203.3l232.1-232.1l155.4,120.9l157.3,118.9l-36.4,59.5c-21.1,32.6-94,159.2-163,280.1c-101.7,178.4-120.9,222.5-97.9,235.9c15.4,7.7,28.8,23,28.8,30.7c0,24.9-310.8,558.2-324.2,558.2C3270.4,3088.9,3187.9,3037.1,3092,2971.9z"/><path d="M5090.9,2885.6c-7.7-5.8-13.4-153.5-13.4-324.2v-312.7l92.1-11.5c49.9-5.8,138.1-19.2,195.7-26.9c57.5-9.6,107.4-15.4,107.4-13.4c7.7,5.8,161.1,590.8,161.1,606.2c0,24.9-113.2,51.8-316.5,74.8C5113.9,2902.9,5106.2,2902.9,5090.9,2885.6z"/><path d="M4041.6,2728.3c-159.2-59.5-345.3-149.6-345.3-166.9c0-7.7,71-134.3,155.4-285.8l155.4-272.4l147.7,63.3c80.6,36.4,155.4,65.2,168.8,65.2c11.5,0,28.8,7.7,34.5,19.2c11.5,19.2-145.8,633-163,633C4189.3,2782,4120.2,2757.1,4041.6,2728.3z"/><path d="M7202.9,2310.1c-191.8-195.7-220.6-230.2-201.4-259c19.2-28.8-9.6-65.2-205.3-262.8l-226.3-228.3l118.9-153.5l118.9-153.5l278.2,161.1c253.2,147.7,280.1,159.2,303.1,130.4c21.1-30.7,46-21.1,280.1,113.2c142,82.5,268.6,155.4,283.9,165c21.1,13.4-1.9,57.5-99.8,205.3c-126.6,188-385.6,506.4-412.4,506.4C7433.1,2534.6,7325.7,2432.9,7202.9,2310.1z"/><path d="M6380,2338.9c-44.1-76.7-115.1-197.6-155.4-268.6c-42.2-71-72.9-138.1-69.1-147.7c7.7-21.1,278.2-232.1,299.2-232.1c7.7,0,113.2,99.8,234,220.6l218.7,218.7l-46,51.8c-53.7,55.6-293.5,237.9-358.7,274.3C6462.4,2475.1,6454.8,2467.4,6380,2338.9z"/><path d="M2879.1,1913c-124.7-145.8-241.7-322.3-224.4-339.5c24.9-23,521.8-305,539-305c7.7,0,55.6,55.6,105.5,122.8c48,67.1,103.6,132.4,118.9,145.8c26.9,23,3.8,53.7-195.7,253.2c-124.7,124.7-232.1,226.4-239.8,226.4C2975,2016.6,2929,1970.6,2879.1,1913z"/><path d="M4876,1893.9c-118.9-53.7-201.4-180.3-201.4-310.8c0-78.7,61.4-209.1,115.1-241.7c34.5-21.1,38.4-46,38.4-222.5c0-170.7-3.8-197.6-32.6-207.2c-283.9-88.2-500.7-305-588.9-587c-9.6-30.7-36.4-34.5-207.2-34.5c-176.5,0-201.4,3.8-222.5,38.4c-11.5,21.1-57.5,55.6-99.8,76.7C3364.4,564.5,3047.9,177,3280-87.8c107.4-122.8,257.1-153.5,397.1-82.5c42.2,21.1,88.3,55.6,99.8,76.7c21.1,34.5,46,38.4,222.5,38.4c170.7,0,197.6-3.8,207.2-32.6c99.7-299.2,289.7-489.2,588.9-588.9c28.8-9.6,32.6-36.5,32.6-207.2c0-176.5-3.8-201.4-38.4-222.5c-53.7-32.6-115.1-163-115.1-243.6c0-145.8,122.8-301.2,259-328c201.4-36.4,393.2,122.8,393.2,328c0,80.6-61.4,211-115.1,243.6c-34.5,21.1-38.4,46.1-38.4,222.5c0,170.7,3.8,197.6,34.5,207.2c297.3,99.7,487.3,289.6,587,588.9c9.6,28.8,36.4,32.6,207.2,32.6c176.5,0,201.4-3.8,222.5-38.4c32.6-53.7,163.1-115.1,243.6-115.1c216.8,0,385.6,224.4,318.4,425.9c-42.2,126.6-184.2,226.4-320.3,226.4c-78.7,0-209.1-61.4-241.7-115.1c-21.1-34.5-46-38.4-222.5-38.4c-170.7,0-197.6,3.8-207.2,34.5c-99.7,297.3-289.7,487.2-587,587c-30.7,9.6-34.5,36.4-34.5,207.2c0,176.5,3.8,201.4,38.4,222.5c53.7,32.6,115.1,163.1,115.1,243.6C5326.8,1819,5083.2,1985.9,4876,1893.9z"/><path d="M1906.5,1600.4c-94-195.7-235.9-577.4-220.6-590.8c7.7-7.7,600.4-163.1,617.7-163.1c7.7,0,19.2,15.3,26.8,34.5c13.4,32.6,32.6,30.7,318.4-48c166.9-44.1,312.7-76.7,320.4-71c9.6,5.7,17.3,21.1,17.3,32.6c0,13.4,28.8,90.2,65.2,170.7l65.2,147.7l-276.2,159.2c-243.6,140-276.2,165-266.7,201.4c7.7,36.4-23,59.5-257,195.7c-147.7,86.3-276.2,155.4-285.8,155.4S1966,1723.1,1906.5,1600.4z"/><path d="M7168.4,1274.2c-153.5-88.2-276.2-166.9-274.3-174.6c13.4-42.2,136.2-333.8,143.9-341.5c7.7-7.7,527.5,126.6,606.2,155.4c26.9,9.6-49.9,237.9-141.9,414.4l-55.6,107.4L7168.4,1274.2z"/><path d="M7979.8,917.5c-272.4-72.9-291.6-82.5-282-118.9c9.6-38.4-11.5-48-306.9-124.7c-255.1-67.1-316.5-90.2-308.8-115.1c5.8-21.1,48-331.9,48-358.7c0-3.8,147.7-5.8,326.1-5.8c312.7,0,326.1-1.9,326.1-38.4s13.4-38.4,329.9-38.4h328l-11.5,207.2c-17.3,306.9-92.1,677.2-134.3,673.3C8281,998,8140.9,961.6,7979.8,917.5z"/><path d="M2278.7,679.6c-17.3-71-59.5-383.7-59.5-450.8c0-30.7,28.8-34.5,324.2-34.5h326.1l11.5,92.1c5.8,49.9,19.2,138.1,26.9,195.7c9.6,57.5,15.3,107.4,13.4,107.4c-5.8,7.7-590.8,161.1-606.2,161.1C2305.5,750.6,2288.3,717.9,2278.7,679.6z"/><path d="M1572.7-87.8c17.3-274.3,88.3-677.1,122.8-677.1c5.8,0,147.7,36.5,314.6,80.6c285.8,74.8,303.1,80.6,293.5,120.8c-9.6,38.4,7.7,46.1,308.8,124.7c259,67.1,316.5,88.3,308.8,113.2c-7.7,23-49.9,331.9-49.9,360.6c0,3.8-145.8,5.7-326.1,5.7c-312.7,0-326.1,1.9-326.1,38.4c0,36.5-13.4,38.4-329.9,38.4h-328L1572.7-87.8z"/><path d="M7120.4-49.4c-5.8-51.8-19.2-140-26.9-197.6c-9.6-57.6-15.3-105.5-13.4-107.4c0,0,138.1-38.4,306.9-82.5c226.3-61.4,308.8-76.7,318.4-59.5c15.3,24.9,49.9,228.3,69.1,418.2L7788,40.8h-328h-328L7120.4-49.4z"/><path d="M2662.3-592.2c-151.6-42.2-287.7-78.7-303.1-84.4c-19.2-7.7-13.4-42.2,28.8-159.2c30.7-82.5,80.6-197.6,111.3-259l55.6-107.4l278.1,161.2c153.5,90.1,276.2,168.8,274.3,176.5c-24.9,76.7-141.9,339.5-153.5,343.4C2946.2-519.4,2813.9-552,2662.3-592.2z"/><path d="M7022.6-546.2c-7.7-21.1-40.3-101.7-74.8-182.2l-61.4-147.7l276.2-159.2c245.5-140,276.2-163,266.6-201.4c-9.6-36.5,19.2-59.5,259-197.6c147.7-84.4,276.2-155.4,283.9-155.4c38.4,0,370.2,790.3,343.4,815.3c-3.8,3.8-141.9,42.2-310.8,88.3c-291.6,78.6-305,80.5-329.9,46c-26.9-34.5-94-21.1-606.2,118.9C7047.5-515.5,7030.2-525.1,7022.6-546.2z"/><path d="M6779-1039.2c-5.7-13.4-53.7-84.4-109.3-155.4l-99.8-130.5l226.3-228.3l226.4-228.3l53.7,51.8c88.2,84.4,285.8,376,268.6,393.2c-15.3,15.4-539.1,322.3-550.5,322.3C6790.5-1014.3,6784.7-1025.8,6779-1039.2z"/><path d="M2904-1188.8c-245.5-143.9-268.6-151.5-289.7-120.8c-23,30.7-46,21.1-301.2-126.6c-151.6-86.3-280.1-161.1-282-165c-24.9-19.2,418.2-612,516-692.5c24.9-19.2,67.1,15.4,257,205.3c199.5,199.5,224.4,232.1,201.4,259c-23,26.9,1.9,59.5,205.3,264.7l232.1,234L3328-1186.9c-63.3,78.7-126.6,145.8-138.1,147.7C3178.3-1035.4,3049.8-1104.4,2904-1188.8z"/><path d="M3326.1-1681.8l-228.3-228.3l94-82.5c99.8-88.2,347.2-260.9,356.8-247.4c3.8,3.8,76.7,130.4,161.1,280.1l155.4,270.5l-151.5,117c-82.5,65.2-151.6,117-155.4,117C3554.3-1455.5,3450.8-1557.1,3326.1-1681.8z"/><path d="M6295.5-1562.9c-72.9-57.5-136.2-113.2-140-122.8s63.3-140,149.6-289.6c143.9-247.5,153.5-272.4,122.8-293.5c-30.7-23-21.1-48,128.5-305l161.1-280.1l86.3,49.9c207.2,118.9,613.8,447,613.8,491.1c0,13.4-97.8,122.8-218.7,241.7c-193.7,193.7-224.4,216.8-251.3,193.7s-57.5,1.9-255.1,197.6c-124.7,122.8-234,224.5-243.6,222.5C6437.5-1457.4,6370.4-1505.4,6295.5-1562.9z"/><path d="M3849.7-2044.4c-140-245.5-163.1-276.2-199.5-266.6c-38.4,9.6-61.4-21.1-199.5-262.8c-86.3-149.6-157.3-278.1-157.3-283.9c0-38.4,790.3-364.5,817.2-337.6c3.8,3.8,42.2,142,88.2,308.8c76.7,291.6,78.6,305,44.1,329.9c-32.6,24.9-30.7,38.4,46,324.2c78.6,287.8,82.5,335.7,34.5,335.7c-13.4,0-88.2,28.8-168.8,65.2l-147.7,63.3L3849.7-2044.4z"/><path d="M5959.9-1781.6c-15.3-11.5-88.2-42.2-163.1-71c-72.9-26.9-140-55.6-147.7-63.3c-11.5-7.7,107.4-494.9,147.7-610c9.6-26.9,235.9,49.9,414.3,142l109.3,55.6l-157.3,272.4c-84.4,149.6-161.1,276.3-165,282C5992.5-1768.1,5975.2-1772,5959.9-1781.6z"/><path d="M4532.7-1971.5c-3.8-5.8-42.2-143.9-86.3-306.9c-57.5-212.9-72.9-299.3-57.5-310.8c24.9-13.4,230.2-47.9,416.3-67.1l118.9-13.4v328v328l-90.2,11.5c-51.8,5.8-138.1,19.2-193.7,26.9C4584.4-1967.7,4536.5-1965.7,4532.7-1971.5z"/><path d="M5355.6-1975.3c-51.8-7.7-136.2-21.1-186.1-26.9l-92.1-11.5v-326.1c0-310.8-1.9-324.2-38.4-324.2c-36.4,0-38.4-13.4-38.4-330v-328l207.2,11.5c203.3,11.5,606.2,78.7,654.2,109.3c21.1,11.5,9.6,78.7-55.6,324.2c-76.7,287.7-86.3,306.9-122.8,297.3c-38.4-9.6-46,11.5-124.7,306.9c-46,176.5-90.2,316.5-95.9,316.5C5457.3-1958.1,5409.3-1965.7,5355.6-1975.3z"/></g></g>
</svg>