<?xml version="1.0" encoding="iso-8859-1"?>
<!-- Generator: Adobe Illustrator 19.0.0, SVG Export Plug-In . SVG Version: 6.00 Build 0)  -->
<svg version="1.1" id="Capa_1" xmlns="http://www.w3.org/2000/svg" xmlns:xlink="http://www.w3.org/1999/xlink" x="0px" y="0px"
	 viewBox="0 0 225.398 225.398" style="enable-background:new 0 0 225.398 225.398;" xml:space="preserve">
<g>
	<polygon points="65.283,156.896 46.572,134.919 27.86,156.896 46.572,178.874 	"/>
	<polygon points="131.283,156.896 112.572,134.919 93.86,156.896 112.572,178.874 	"/>
	<polygon points="197.283,156.896 178.572,134.919 159.86,156.896 178.572,178.874 	"/>
	<path d="M156.033,87.398h-20h-46h-20H3.699v138h66.333h20h46h20h65.667v-138H156.033z M69.699,205.398h-46v-98h46V205.398z
		 M135.699,205.398h-46v-98h46V205.398z M201.699,205.398h-46v-98h46V205.398z"/>
	<polygon points="93.659,59.617 113.03,49.433 132.401,59.617 128.702,38.048 144.373,22.771 122.716,19.624 113.03,0 
		103.345,19.624 81.688,22.771 97.358,38.048 	"/>
	<polygon points="155.108,56.381 151.409,77.949 170.78,67.767 190.151,77.949 186.452,56.381 202.123,41.104 180.466,37.958 
		170.78,18.332 161.095,37.958 139.438,41.104 	"/>
	<polygon points="35.909,77.949 55.28,67.767 74.651,77.949 70.952,56.381 86.623,41.104 64.966,37.958 55.28,18.332 45.595,37.958 
		23.938,41.104 39.608,56.381 	"/>
</g>
<g>
</g>
<g>
</g>
<g>
</g>
<g>
</g>
<g>
</g>
<g>
</g>
<g>
</g>
<g>
</g>
<g>
</g>
<g>
</g>
<g>
</g>
<g>
</g>
<g>
</g>
<g>
</g>
<g>
</g>
</svg>
