<?xml version="1.0" encoding="UTF-8"?>
<!DOCTYPE svg PUBLIC "-//W3C//DTD SVG 1.1//EN" "http://www.w3.org/Graphics/SVG/1.1/DTD/svg11.dtd">
<!-- Creator: CorelDRAW X7 -->
<svg xmlns="http://www.w3.org/2000/svg" xml:space="preserve" width="126.638mm" height="41.374mm" version="1.1" style="shape-rendering:geometricPrecision; text-rendering:geometricPrecision; image-rendering:optimizeQuality; fill-rule:evenodd; clip-rule:evenodd"
viewBox="0 0 1507 493"
 xmlns:xlink="http://www.w3.org/1999/xlink">
 <defs>
  <style type="text/css">
   <![CDATA[
    .fil4 {fill:#1C2229}
    .fil1 {fill:#272E36}
    .fil5 {fill:#373F47}
    .fil0 {fill:#414A54}
    .fil3 {fill:#E6E6E6}
    .fil2 {fill:white}
    .fil6 {fill:url(#id0)}
    .fil8 {fill:url(#id1)}
    .fil7 {fill:url(#id2)}
   ]]>
  </style>
  <linearGradient id="id0" gradientUnits="userSpaceOnUse" x1="118.039" y1="211.446" x2="1389.62" y2="211.446">
   <stop offset="0" style="stop-opacity:1; stop-color:#414A54"/>
   <stop offset="0.501961" style="stop-opacity:1; stop-color:#646E7A"/>
   <stop offset="1" style="stop-opacity:1; stop-color:#414A54"/>
  </linearGradient>
  <linearGradient id="id1" gradientUnits="userSpaceOnUse" x1="0.00119038" y1="343.679" x2="97.0991" y2="343.679">
   <stop offset="0" style="stop-opacity:1; stop-color:#272E36"/>
   <stop offset="0.501961" style="stop-opacity:1; stop-color:#414A54"/>
   <stop offset="1" style="stop-opacity:1; stop-color:#272E36"/>
  </linearGradient>
  <linearGradient id="id2" gradientUnits="userSpaceOnUse" xlink:href="#id1" x1="1410.37" y1="343.679" x2="1507.47" y2="343.679">
  </linearGradient>
 </defs>
 <g id="Слой_x0020_1">
  <metadata id="CorelCorpID_0Corel-Layer"/>
  <g id="_848746320">
   <path class="fil0" d="M0 195c-12,48 381,29 769,29 370,-1 730,23 738,-29l-153 -173 0 0c-11,-12 -47,-22 -90,-22l0 0 -1020 0 -1 0c-43,0 -79,10 -89,22l-1 1 -153 172z"/>
   <path class="fil1" d="M752 222l3 0 653 0c2,0 3,0 5,0 1,0 3,0 4,0l1 0 0 0c47,-1 85,-12 89,-27l0 0 0 266 0 0c0,1 0,1 0,1 0,17 -41,30 -93,31l0 0 -1 0 -658 0 -3 0 -657 0 -1 0 0 0c-52,-1 -94,-14 -94,-31 0,0 0,0 0,-1l0 0 0 -266 0 0 1 0c4,15 42,26 89,27l0 0 0 0c2,0 3,0 5,0 2,0 3,0 5,0l652 0z"/>
   <path class="fil2" d="M1196 316l26 -36c2,-2 4,-4 7,-3 -4,4 -5,11 -2,17l3 3 -32 51c-2,2 -4,3 -7,3 -3,0 -5,-1 -6,-4 -8,-12 -16,-24 -25,-37 -2,-3 -5,-1 -7,0l-24 37c-2,3 -7,5 -11,2 -4,-2 -5,-7 -2,-11l36 -58c2,-3 4,-4 7,-4 3,0 5,1 6,4 7,12 14,23 21,36 3,4 6,5 10,0zm83 -1l22 -34c3,-5 10,-7 14,-4 5,3 7,10 4,15l-36 55c-2,3 -6,5 -9,5 -4,0 -7,-2 -9,-5l-34 -55c-3,-5 -2,-12 3,-15 5,-3 11,-1 14,4 7,11 14,22 21,34 2,3 7,4 10,0zm-16 3c-7,-12 -13,-23 -20,-34 -1,-2 -4,-2 -6,-1 -2,1 -2,4 -1,5l34 56c1,1 2,2 4,2 1,0 2,-1 3,-2 0,0 0,0 0,0l37 -56c1,-2 0,-4 -2,-5 -2,-2 -4,-1 -6,1 0,0 0,0 0,0l-22 34c0,0 0,0 0,1 -6,7 -16,7 -21,-1z"/>
   <path class="fil2" d="M1111 402l0 -2c4,0 10,0 15,0 6,0 12,0 20,0l0 12 -2 0c-1,-4 -1,-6 -2,-7 0,0 -1,-1 -1,-1 -1,0 -2,0 -4,0l-13 0c0,2 0,8 -1,16l9 0c1,0 2,-1 3,-1 0,0 1,0 1,-1 0,0 1,-2 1,-4 0,0 0,0 0,-1l2 0c0,4 0,7 0,8 0,1 0,4 0,8l-2 0c0,0 0,-1 0,-1 0,-3 -1,-4 -1,-5 -1,0 -2,0 -4,0l-9 0c0,2 0,3 0,4 0,8 1,13 1,13 0,1 0,1 0,1 1,0 3,1 7,2l0 1c-4,0 -8,0 -10,0l-10 0 0 -1c1,-1 1,-1 2,-1 2,0 3,-1 4,-1 0,-1 1,-1 1,-3l0 -9c0,-1 0,-4 0,-8 0,-9 0,-14 0,-16 0,0 -1,-1 -1,-1 0,-1 -2,-1 -5,-2 0,0 0,0 -1,0zm-6 -12l224 0c6,0 10,5 10,10l0 43c0,6 -4,10 -10,10l-224 0c-5,0 -9,-4 -9,-10l0 -43c0,-5 4,-10 9,-10zm164 30l0 -3 0 -6 0 -6c0,-1 -1,-2 -1,-2 0,0 -1,0 -2,-1l-4 -1 0 -1c4,0 8,0 10,0 2,0 5,0 9,0l0 1c-4,1 -5,2 -6,2 0,0 0,0 0,0 -1,1 -1,2 -1,4 0,3 0,8 0,16l0 15 0 0c0,1 0,2 1,2 0,1 2,1 6,2l0 2c-6,0 -9,-1 -10,-1 -3,0 -6,1 -9,1l0 -2 5 -1c1,0 1,-1 1,-1 0,0 0,-1 0,-2l1 -15c-5,0 -9,0 -12,0 -3,0 -6,0 -9,0l0 15c0,1 0,2 0,2 0,0 1,1 2,1 0,0 1,0 4,1l0 2c-4,0 -8,-1 -10,-1 -2,0 -5,1 -8,1l0 -2c2,-1 3,-1 4,-1 1,0 2,0 2,-1 0,0 0,-1 0,-2 0,-4 0,-10 0,-17l0 -15 0 -1c0,-1 0,-2 0,-2 0,0 -1,0 -2,-1l-4 -1 0 -1c4,0 7,0 9,0 3,0 6,0 9,0l0 1 -5 1c0,1 -1,1 -1,1 0,0 0,1 0,2l0 15c3,0 6,0 9,0 4,0 8,0 12,0zm14 -19l0 -1c4,0 8,0 13,0l12 0c5,0 8,0 11,2 3,1 5,3 6,6 1,3 2,7 2,11 0,7 -2,13 -7,18 -4,4 -10,7 -18,7 -1,0 -2,0 -5,0 -4,-1 -5,-1 -6,-1 -2,0 -4,1 -8,1l0 -2c3,-1 5,-1 5,-1 1,0 1,0 1,-1 0,0 0,0 0,0 1,-1 1,-3 1,-6 0,-6 0,-11 0,-14l0 -14 0 -1c0,-1 -1,-2 -1,-2 0,0 -2,-1 -6,-2zm12 39c4,0 6,1 8,1 4,0 6,-1 8,-2 4,-2 6,-4 7,-7 2,-4 3,-8 3,-12 0,-3 0,-5 -1,-7 -1,-2 -1,-4 -2,-5 -1,-2 -3,-3 -5,-4 -2,-1 -5,-1 -9,-1 -3,0 -5,0 -9,0 0,5 0,12 0,19 0,7 0,13 0,18zm-71 9l0 -55 -119 0c-3,0 -5,3 -5,6l0 43c0,4 2,6 5,6l119 0zm-25 -45l0 -1c4,-2 7,-3 10,-4l1 0c-1,4 -1,11 -1,22 0,11 0,17 0,18 0,1 0,2 1,2 0,0 2,1 4,2l0 1c-3,0 -6,0 -7,0 -2,0 -5,0 -8,0l0 -1c3,-1 4,-2 5,-2 0,0 0,-1 0,-2 0,-1 0,-7 0,-17l0 -15 0 0c0,-1 0,-2 0,-3 -1,0 -1,0 -2,0 0,0 -1,0 -3,0zm-16 0l0 -1c3,-2 6,-3 9,-4l1 0c0,4 -1,11 -1,22 0,11 0,17 0,18 1,1 1,2 1,2 1,0 2,1 5,2l0 1c-4,0 -6,0 -8,0 -2,0 -4,0 -7,0l0 -1c2,-1 4,-2 4,-2 0,0 0,-1 1,-2 0,-1 0,-7 0,-17l0 -15 0 0c0,-1 -1,-2 -1,-3 0,0 -1,0 -1,0 -1,0 -2,0 -3,0zm-35 13l0 -1c4,-1 7,-1 10,-2l1 1c-1,4 -1,8 -1,13 0,5 0,7 1,9 0,1 1,2 1,3 1,0 2,1 4,1 1,0 2,-1 4,-2 1,0 2,-1 2,-3 1,-1 1,-3 1,-6 0,0 0,-3 0,-10 0,-1 0,-2 -1,-2 0,0 -1,0 -3,0l-1 -1 0 -1c4,-1 7,-1 10,-2l0 1c0,2 0,4 0,6 0,3 0,6 0,9 0,5 0,7 0,8 0,1 1,1 2,1 0,0 2,0 3,0l0 2c-2,0 -4,1 -5,1 -2,1 -3,2 -5,3l0 -1c0,-1 0,-3 0,-5 -2,3 -4,4 -5,5 -2,0 -3,1 -4,1 -3,0 -5,-1 -6,-2 -2,-2 -3,-4 -3,-7l0 -11c0,-4 0,-6 0,-6 -1,-1 -2,-1 -4,-1 0,0 0,-1 -1,-1z"/>
   <polygon class="fil3" points="495,360 521,331 514,352 525,355 499,383 506,363 "/>
   <circle class="fil4" cx="285" cy="357" r="63"/>
   <circle class="fil5" cx="450" cy="357" r="14"/>
   <rect class="fil6" x="118" y="201" width="1271.58" height="21.3289"/>
   <path class="fil7" d="M1410 222c33,0 89,-5 97,-27 0,80 0,187 0,267 -4,24 -64,31 -97,31 0,-81 0,-191 0,-271z"/>
   <path class="fil8" d="M97 222c-32,0 -88,-5 -97,-27 0,80 0,187 0,267 5,24 65,31 97,31 0,-81 0,-191 0,-271z"/>
  </g>
 </g>
</svg>
