<?xml version="1.0" encoding="UTF-8"?>
<!DOCTYPE svg PUBLIC "-//W3C//DTD SVG 1.1//EN" "http://www.w3.org/Graphics/SVG/1.1/DTD/svg11.dtd">
<!-- Creator: CorelDRAW X7 -->
<svg xmlns="http://www.w3.org/2000/svg" xml:space="preserve" width="43.5115mm" height="6.1742mm" version="1.1" style="shape-rendering:geometricPrecision; text-rendering:geometricPrecision; image-rendering:optimizeQuality; fill-rule:evenodd; clip-rule:evenodd"
viewBox="0 0 4510 640"
 xmlns:xlink="http://www.w3.org/1999/xlink">
 <defs>
  <style type="text/css">
   <![CDATA[
    .fil0 {fill:#2B2A29;fill-rule:nonzero}
    .fil1 {fill:#7EBA32;fill-rule:nonzero}
    .fil2 {fill:#7EBA32;fill-rule:nonzero}
    .fil3 {fill:#1C1B17;fill-rule:nonzero}
   ]]>
  </style>
 </defs>
 <g id="Layer_x0020_1">
  <metadata id="CorelCorpID_0Corel-Layer"/>
  <g id="_630392848">
   <path class="fil0" d="M795 438c29,26 70,51 128,51 102,0 173,-72 173,-171 0,-91 -63,-167 -169,-167 -48,0 -96,16 -127,49l37 60c27,-24 54,-37 87,-37 48,0 78,28 87,65l-135 0 0 64 135 0c-9,36 -38,65 -87,65 -35,0 -67,-15 -90,-36l-39 57z"/>
   <polygon class="fil0" points="1144,483 1223,483 1223,351 1256,351 1325,483 1415,483 1322,314 1322,313 1410,157 1324,157 1256,283 1223,283 1223,157 1144,157 "/>
   <path class="fil0" d="M1413 318c0,96 72,171 171,171 98,0 170,-75 170,-171 0,-94 -72,-167 -170,-167 -99,0 -171,73 -171,167zm82 0c0,-54 40,-94 89,-94 48,0 88,40 88,94 0,56 -40,98 -88,98 -49,0 -89,-42 -89,-98z"/>
   <polygon class="fil0" points="1796,483 1875,483 1875,355 1994,355 1994,483 2074,483 2074,157 1994,157 1994,287 1875,287 1875,157 1796,157 "/>
   <polygon class="fil0" points="2132,483 2343,483 2343,415 2212,415 2212,353 2311,353 2311,285 2212,285 2212,225 2337,225 2337,157 2132,157 "/>
   <polygon class="fil0" points="2466,483 2546,483 2546,225 2645,225 2645,157 2367,157 2367,225 2466,225 "/>
   <path class="fil1" d="M2668 319c0,97 66,170 171,170 60,0 103,-25 131,-55l-41 -59c-22,23 -54,41 -86,41 -63,0 -93,-50 -93,-99 0,-47 27,-93 93,-93 29,0 60,15 81,34l37 -61c-32,-31 -78,-46 -122,-46 -101,0 -171,73 -171,168z"/>
   <path class="fil1" d="M3011 483l80 0 91 -152c13,-21 28,-56 28,-56l1 0c0,0 -4,36 -4,56l0 152 80 0 0 -326 -81 0 -90 152c-13,22 -28,56 -28,56l-1 0c0,0 4,-35 4,-56l0 -152 -80 0 0 326z"/>
   <path class="fil1" d="M3355 483l136 0c63,0 106,-43 106,-103 0,-60 -43,-104 -106,-104l-56 0 0 -51 133 0 0 -68 -213 0 0 326zm80 -68l0 -71 39 0c28,0 42,15 42,36 0,21 -14,35 -40,35l-41 0z"/>
   <path class="fil1" d="M3644 483l81 0 91 -152c12,-21 27,-56 27,-56l1 0c0,0 -4,36 -4,56l0 152 80 0 0 -326 -81 0 -90 152c-13,22 -28,56 -28,56l0 0c0,0 3,-35 3,-56l0 -152 -80 0 0 326z"/>
   <path class="fil1" d="M3982 483l80 0 0 -101 56 0c63,0 106,-47 106,-113 0,-66 -43,-112 -106,-112l-136 0 0 326zm80 -169l0 -89 41 0c26,0 40,18 40,44 0,26 -14,45 -42,45l-39 0z"/>
   <path class="fil1" d="M4268 483l135 0c64,0 107,-46 107,-112 0,-66 -43,-113 -107,-113l-56 0 0 -101 -79 0 0 326zm79 -68l0 -89 40 0c28,0 41,19 41,45 0,26 -13,44 -40,44l-41 0z"/>
   <path class="fil2" d="M315 111c58,0 110,24 147,61 38,38 62,90 62,148 0,58 -24,110 -62,147 -37,38 -89,62 -147,62 -58,0 -110,-24 -148,-62 -37,-37 -61,-89 -61,-147 0,-58 24,-110 61,-148 38,-37 90,-61 148,-61z"/>
   <path class="fil3" d="M315 0l0 0 -4 0 0 0 -4 0 0 0c-2,0 -3,0 -4,0l0 0c-2,0 -3,0 -5,0l0 0 -4 1 0 0 -4 0 0 0 -4 0 0 0 -4 1 0 0c-1,0 -2,0 -4,0l0 0c-1,0 -2,0 -4,1l0 0c-1,0 -2,0 -4,0l0 0 -4 1 0 0 -4 0 0 0c-1,1 -2,1 -4,1l0 0 -4 1 0 0 -4 0 0 0c-1,1 -2,1 -3,1l0 0c-2,1 -3,1 -4,1l0 0 -4 1 0 0 -4 1 0 0 -4 1 0 0 -4 1 0 0c-1,0 -2,1 -3,1l0 0 -4 1 0 0c-1,1 -3,1 -4,2l0 0 -4 1 0 0c-1,0 -2,1 -3,1l-4 1 0 0c-44,17 -84,42 -116,75l0 0c-46,45 -77,104 -89,169l114 0c10,-35 29,-66 54,-90 14,-15 30,-27 48,-36l0 0c3,-2 7,-4 11,-6l0 0c6,-3 12,-5 19,-8l2 -1 0 0 2 0 0 0 3 -1 0 0 2 -1 0 0 3 -1 0 0 2 0 0 0 3 -1 0 0 2 -1 0 0 3 0 0 0 2 -1 0 0 3 0 0 0 2 -1 0 0 3 0 0 0 3 -1 0 0 2 0 0 0 3 -1 0 0 2 0 0 0 3 0 0 0 3 0 0 0 2 -1 0 0 3 0 0 0 3 0 0 0 2 0 0 0 3 0 0 0 3 0 0 0 2 -1 0 0 3 0 0 0 3 0 0 0 2 1 0 0 3 0 0 0 3 0 0 0 2 0 0 0 3 0 0 0 3 0 0 0 2 1 0 0 3 0 0 0 2 0 0 0 3 0 0 0 3 1 0 0 2 0 0 0 3 1 0 0 2 0 0 0 3 1 0 0 2 0 0 0 3 1 0 0 3 0 0 0 2 1 0 0 3 1 0 0 2 0 0 0 2 1 0 0 3 1 0 0 2 1 0 0 3 0 0 0 2 1c7,3 13,5 19,8l0 0c4,2 8,4 11,6l0 0c18,9 34,21 48,36 25,24 44,55 54,90l-123 0c-3,-4 -6,-8 -10,-11 -10,-10 -22,-18 -36,-23l-1 0 0 0 -1 -1 0 0 -1 0 0 0 -2 0 0 0 -1 -1 0 0 -1 0 0 0 -1 0 0 0 -1 -1 0 0 -1 0 0 0 -1 0 0 0 -2 -1 0 0 -1 0 0 0 -1 0 0 0 -1 0 0 0 -1 0 0 0 -2 -1 0 0 -1 0 0 0 -1 0 0 0 -1 0 0 0 -1 0 0 0 -2 0 0 0 -1 0 0 0 -1 0 0 0 -1 0 0 0 -2 0 0 0 -1 0 0 0 -1 0 0 0 -1 0 0 0 -2 0 0 0 -1 0 0 0 -1 0 0 0 -1 0 0 0 -1 0 0 0 -2 0 0 0 -1 0 0 0 -1 0 0 0 -1 0 0 0 -2 0 0 0 -1 1 0 0 -1 0 0 0 -1 0 0 0 -1 0 0 0 -1 0 -1 0 -1 1 0 0 -1 0 0 0 -1 0 0 0 -1 1 0 0 -1 0 0 0 -1 0 0 0 -2 1 0 0 -1 0 0 0 -1 0 0 0 -1 1 0 0 -1 0c-14,5 -26,13 -36,23 -18,17 -28,41 -28,68 0,27 10,51 28,68 10,10 22,18 36,23l1 0 0 0 1 1 0 0 1 0 0 0 1 0 0 0 2 1 0 0 1 0 0 0 1 0 0 0 1 1 0 0 1 0 0 0 1 0 0 0 1 0 1 0 1 1 0 0 1 0 0 0 1 0 0 0 1 0 0 0 1 0 0 0 2 1 0 0 1 0 0 0 1 0 0 0 1 0 0 0 2 0 0 0 1 0 0 0 1 0 0 0 1 0 0 0 1 0 0 0 2 0 0 0 1 0 0 0 1 0 0 0 1 0 0 0 2 0 0 0 1 0 0 0 1 0 0 0 1 0 0 0 2 0 0 0 1 0 0 0 1 0 0 0 1 0 0 0 1 -1 0 0 2 0 0 0 1 0 0 0 1 0 0 0 1 0 0 0 1 -1 0 0 2 0 0 0 1 0 0 0 1 0 0 0 1 -1 0 0 1 0 0 0 1 0 0 0 1 -1 0 0 2 0 0 0 1 0 0 0 1 -1 0 0 1 0c14,-5 26,-13 36,-23 4,-3 7,-7 10,-11l123 0c-10,34 -29,66 -54,90 -1,2 -2,3 -3,4l0 0c-3,2 -5,4 -8,7l0 0c-2,1 -3,3 -5,4l0 0 -2 2 0 0 -2 1 0 0c-2,2 -4,4 -6,5l0 0c-11,8 -23,14 -35,20l0 0 -3 1 0 0c-1,1 -3,1 -4,2l0 0c-4,2 -8,3 -12,4l0 0 -3 1 0 0c-1,1 -3,1 -5,2l0 0c-1,0 -3,1 -4,1l0 0 -3 1 0 0 -2 0 0 0 -3 1 0 0 -3 1 0 0 -2 0 0 0 -3 1 0 0 -2 0 0 0 -3 1 0 0 -2 0 0 0 -3 0 0 0 -3 1 0 0 -2 0 0 0 -3 0 0 0 -2 1 0 0 -3 0 0 0 -3 0 0 0 -2 0 0 0 -3 0 0 0 -3 0 0 0 -2 0 0 0 -3 0 0 0 -3 0 0 0 -2 0 0 0 -3 0 0 0 -3 0 0 0 -2 0 0 0 -3 0 0 0 -3 0 0 0 -2 -1 0 0 -3 0 0 0 -3 0 0 0 -2 -1 0 0 -3 0 0 0 -2 0 0 0 -3 -1 0 0 -3 0 0 0 -2 -1 0 0 -3 0 0 0 -2 -1 0 0 -3 -1 0 0 -2 0 0 0 -3 -1 0 0c-1,0 -3,-1 -5,-1l0 0c-1,-1 -3,-1 -5,-2l0 0 -2 -1 0 0c-4,-1 -8,-2 -12,-4l0 0c-1,-1 -3,-1 -5,-2l0 0 -2 -1 0 0c-12,-6 -24,-12 -35,-20l0 0c-2,-1 -4,-3 -6,-5l0 0 -2 -1 0 0 -2 -2 0 0c-2,-1 -4,-3 -5,-4l0 0c-3,-3 -5,-5 -8,-7l0 0c-1,-1 -2,-2 -3,-4 -25,-24 -44,-56 -54,-90l-114 0c12,65 43,124 89,169l0 0c32,33 72,58 116,74l0 0 4 2c1,0 2,1 3,1l0 0 4 1 0 0 4 2 0 0c1,0 2,0 4,1l0 0 3 1 0 0 4 1 0 0 4 1 0 0 4 1 0 0 4 1 0 0 4 1 0 0c1,0 2,0 3,0l0 0 4 1 0 0 4 1 0 0c2,0 3,0 4,1l0 0 4 0 0 0 4 1 0 0c2,0 3,0 4,0l0 0c2,0 3,1 4,1l0 0c2,0 3,0 4,0l0 0 4 1 0 0 4 0 0 0c2,0 3,0 4,0l0 0c2,0 3,0 4,0l0 0c2,1 3,1 5,1l0 0 4 0 0 0 4 0 0 0 4 0 0 0 4 0 0 0 4 0 0 0c2,0 3,0 4,0l0 0c2,0 3,0 4,-1l0 0 4 0 0 0c2,0 3,0 5,0l0 0 4 0 0 0 4 -1 0 0c1,0 2,0 4,0l0 0c1,0 2,-1 4,-1l0 0c1,0 2,0 4,0l0 0 4 -1 0 0 4 0 0 0c1,-1 2,-1 4,-1l0 0 3 -1 1 0 3 -1 0 0c2,0 3,0 4,0l0 0c2,-1 3,-1 4,-1l0 0 4 -1 0 0 4 -1 0 0 4 -1 0 0 4 -1 0 0c1,-1 2,-1 3,-1l0 0 4 -1 0 0 4 -2 0 0 4 -1 0 0c1,0 2,-1 3,-1l4 -2 0 0c44,-16 84,-41 116,-74l0 0c58,-58 94,-138 94,-226 0,-88 -36,-168 -94,-226l0 0c-32,-33 -72,-58 -116,-75l0 0 -4 -1 -3 -1 0 0 -4 -1 0 0 -4 -2 0 0c-1,0 -2,0 -4,-1l0 0 -3 -1 0 0 -4 -1 0 0 -4 -1 0 0 -4 -1 0 0 -4 -1 0 0 -4 -1 0 0c-1,0 -2,0 -4,-1l0 0 -3 0 -1 0 -3 -1 0 0c-2,0 -3,0 -4,-1l0 0 -4 0 0 0 -4 -1 0 0c-2,0 -3,0 -4,0l0 0c-2,-1 -3,-1 -4,-1l0 0 -4 0 0 0c-2,0 -3,-1 -4,-1l0 0 -4 0 0 0c-2,0 -3,0 -5,0l0 0c-1,0 -2,-1 -4,-1l0 0c-1,0 -2,0 -4,0l0 0 -4 0 0 0 -4 0 0 0 -4 0z"/>
  </g>
 </g>
</svg>
