<?xml version="1.0" encoding="UTF-8" standalone="no"?>
<!-- Created with Inkscape (http://www.inkscape.org/) -->

<svg
   xmlns:dc="http://purl.org/dc/elements/1.1/"
   xmlns:cc="http://creativecommons.org/ns#"
   xmlns:rdf="http://www.w3.org/1999/02/22-rdf-syntax-ns#"
   xmlns:svg="http://www.w3.org/2000/svg"
   xmlns="http://www.w3.org/2000/svg"
   xmlns:sodipodi="http://sodipodi.sourceforge.net/DTD/sodipodi-0.dtd"
   xmlns:inkscape="http://www.inkscape.org/namespaces/inkscape"
   version="1.1"
   id="svg2"
   width="127"
   height="128"
   viewBox="0 0 127 128"
   sodipodi:docname="ipoteka.svg"
   inkscape:version="0.92.1 r15371">
  <metadata
     id="metadata8">
    <rdf:RDF>
      <cc:Work
         rdf:about="">
        <dc:format>image/svg+xml</dc:format>
        <dc:type
           rdf:resource="http://purl.org/dc/dcmitype/StillImage" />
        <dc:title></dc:title>
      </cc:Work>
    </rdf:RDF>
  </metadata>
  <defs
     id="defs6" />
  <sodipodi:namedview
     pagecolor="#ffffff"
     bordercolor="#666666"
     borderopacity="1"
     objecttolerance="10"
     gridtolerance="10"
     guidetolerance="10"
     inkscape:pageopacity="0"
     inkscape:pageshadow="2"
     inkscape:window-width="1049"
     inkscape:window-height="794"
     id="namedview4"
     showgrid="false"
     inkscape:zoom="1.84375"
     inkscape:cx="63.70822"
     inkscape:cy="64"
     inkscape:window-x="438"
     inkscape:window-y="166"
     inkscape:window-maximized="0"
     inkscape:current-layer="svg2" />
  <g
     id="g4487"
     transform="translate(0.54237254)">
    <path
       style="fill:#cdced2"
       d="m 11.272364,117 c 0,-2.475 0.195016,-3.4875 0.433369,-2.25 0.238353,1.2375 0.238353,3.2625 0,4.5 -0.238353,1.2375 -0.433369,0.225 -0.433369,-2.25 z m 104.013646,-0.5 c 0.008,-2.75 0.20172,-3.75631 0.43157,-2.23625 0.22986,1.52006 0.22371,3.77006 -0.0136,5 -0.23736,1.22994 -0.42542,-0.0138 -0.41792,-2.76375 z M 95,82.5 C 94.315311,81.675 93.980111,81 94.255111,81 c 0.275,0 1.0602,0.675 1.744889,1.5 0.684689,0.825 1.019889,1.5 0.744889,1.5 -0.275,0 -1.0602,-0.675 -1.744889,-1.5 z M 39.75,81.337719 c 0.6875,-0.277412 1.8125,-0.277412 2.5,0 0.6875,0.277413 0.125,0.504386 -1.25,0.504386 -1.375,0 -1.9375,-0.226973 -1.25,-0.504386 z M 31,77.5 C 30.315311,76.675 29.980111,76 30.255111,76 c 0.275,0 1.0602,0.675 1.744889,1.5 0.684689,0.825 1.019889,1.5 0.744889,1.5 -0.275,0 -1.0602,-0.675 -1.744889,-1.5 z m 52.730968,0.844063 c 0.677033,-0.273923 2.027033,-0.290597 3,-0.03705 0.972968,0.25354 0.419032,0.477659 -1.230968,0.498038 -1.65,0.02038 -2.446064,-0.187065 -1.769032,-0.460988 z M 22.5,37 c 2.148243,-2.2 4.130896,-4 4.405896,-4 0.275,0 -1.257653,1.8 -3.405896,4 -2.148243,2.2 -4.130896,4 -4.405896,4 -0.275,0 1.257653,-1.8 3.405896,-4 z M 102.45295,35.75 98.5,31.5 l 4.25,3.952948 C 106.70246,39.12915 107.45953,40 106.70295,40 c -0.16338,0 -2.07588,-1.9125 -4.25,-4.25 z M 40,20.5 C 41.291745,19.125 42.573628,18 42.848628,18 43.123628,18 42.291745,19.125 41,20.5 39.708255,21.875 38.426372,23 38.151372,23 37.876372,23 38.708255,21.875 40,20.5 Z M 84.924314,19.25 82.5,16.5 85.25,18.924314 C 87.820289,21.190201 88.458588,22 87.674314,22 c -0.179127,0 -1.416627,-1.2375 -2.75,-2.75 z M 53,8.6224447 c 0,-0.2076554 0.7875,-0.9951554 1.75,-1.75 C 56.336056,5.6285741 56.371426,5.6639444 55.127555,7.25 53.821186,8.915748 53,9.4454789 53,8.6224447 Z M 72,7.5 C 71.315311,6.675 70.980111,6 71.255111,6 71.530111,6 72.315311,6.675 73,7.5 73.684689,8.325 74.019889,9 73.744889,9 73.469889,9 72.684689,8.325 72,7.5 Z"
       id="path4501"
       inkscape:connector-curvature="0" />
    <path
       style="fill:#9fa0a7"
       d="m 16.8125,127.31689 c 0.721875,-0.28887 1.584375,-0.25335 1.916667,0.0789 0.332291,0.3323 -0.258334,0.56864 -1.3125,0.52522 -1.164943,-0.048 -1.4019,-0.28494 -0.604167,-0.60416 z m 92,0 c 0.72187,-0.28887 1.58437,-0.25335 1.91667,0.0789 0.33229,0.3323 -0.25834,0.56864 -1.3125,0.52522 -1.16495,-0.048 -1.4019,-0.28494 -0.60417,-0.60416 z M 11.432444,89 c 0,-13.475 0.14155,-18.9875 0.314557,-12.25 0.173006,6.7375 0.173006,17.7625 0,24.5 -0.173007,6.7375 -0.314557,1.225 -0.314557,-12.25 z M 115.43125,88.5 c 6.6e-4,-13.2 0.14295,-18.461693 0.31621,-11.692651 0.17326,6.769041 0.17273,17.569041 -0.001,24.000001 C 115.57236,107.23831 115.4306,101.7 115.43125,88.5 Z M 16,43.5 C 17.291745,42.125 18.573628,41 18.848628,41 19.123628,41 18.291745,42.125 17,43.5 15.708255,44.875 14.426372,46 14.151372,46 13.876372,46 14.708255,44.875 16,43.5 Z M 108.92431,42.25 106.5,39.5 l 2.75,2.424314 C 111.82029,44.190201 112.45859,45 111.67431,45 c -0.17912,0 -1.41662,-1.2375 -2.75,-2.75 z M 35,25.622445 c 0,-0.207656 0.7875,-0.995156 1.75,-1.75 C 38.336056,22.628574 38.371426,22.663944 37.127555,24.25 35.821186,25.915748 35,26.445479 35,25.622445 Z M 89,23.5 C 88.315311,22.675 87.980111,22 88.255111,22 c 0.275,0 1.0602,0.675 1.744889,1.5 0.684689,0.825 1.019889,1.5 0.744889,1.5 -0.275,0 -1.0602,-0.675 -1.744889,-1.5 z M 50.5,11 c 0.995486,-1.1 2.034975,-2 2.309975,-2 0.275,0 -0.314489,0.9 -1.309975,2 -0.995486,1.1 -2.034975,2 -2.309975,2 -0.275,0 0.314489,-0.9 1.309975,-2 z M 75,10.5 C 74.315311,9.675 73.980111,9 74.255111,9 c 0.275,0 1.0602,0.675 1.744889,1.5 0.684689,0.825 1.019889,1.5 0.744889,1.5 -0.275,0 -1.0602,-0.675 -1.744889,-1.5 z"
       id="path4499"
       inkscape:connector-curvature="0" />
    <path
       style="fill:#797a84"
       d="m 19.8125,127.31689 c 0.721875,-0.28887 1.584375,-0.25335 1.916667,0.0789 0.332291,0.3323 -0.258334,0.56864 -1.3125,0.52522 -1.164943,-0.048 -1.4019,-0.28494 -0.604167,-0.60416 z m 86,0 c 0.72187,-0.28887 1.58437,-0.25335 1.91667,0.0789 0.33229,0.3323 -0.25834,0.56864 -1.3125,0.52522 -1.16495,-0.048 -1.4019,-0.28494 -0.60417,-0.60416 z M 94,102.62244 c 0,-0.20765 0.7875,-0.99515 1.75,-1.75 1.586056,-1.243866 1.621426,-1.208496 0.377555,0.37756 C 94.821186,102.91575 94,103.44548 94,102.62244 Z M 75,57.622445 c 0,-0.207656 0.7875,-0.995156 1.75,-1.75 C 78.336056,54.628574 78.371426,54.663944 77.127555,56.25 75.821186,57.915748 75,58.445479 75,57.622445 Z M 11.5,48 c 0.995486,-1.1 2.034975,-2 2.309975,-2 0.275,0 -0.314489,0.9 -1.309975,2 -0.995486,1.1 -2.034975,2 -2.309975,2 C 9.9150249,50 10.504514,49.1 11.5,48 Z M 113,46.5 c -0.68469,-0.825 -1.01989,-1.5 -0.74489,-1.5 0.275,0 1.0602,0.675 1.74489,1.5 0.68469,0.825 1.01989,1.5 0.74489,1.5 -0.275,0 -1.0602,-0.675 -1.74489,-1.5 z M 92,26.5 C 91.315311,25.675 90.980111,25 91.255111,25 c 0.275,0 1.0602,0.675 1.744889,1.5 0.684689,0.825 1.019889,1.5 0.744889,1.5 -0.275,0 -1.0602,-0.675 -1.744889,-1.5 z"
       id="path4497"
       inkscape:connector-curvature="0" />
    <path
       style="fill:#686a75"
       d="m 23.75,127.29427 c 1.2375,-0.23836 3.2625,-0.23836 4.5,0 1.2375,0.23835 0.225,0.43337 -2.25,0.43337 -2.475,0 -3.4875,-0.19502 -2.25,-0.43337 z m 75,0 c 1.2375,-0.23836 3.2625,-0.23836 4.5,0 1.2375,0.23835 0.225,0.43337 -2.25,0.43337 -2.475,0 -3.4875,-0.19502 -2.25,-0.43337 z M 49,104.62244 c 0,-0.20765 0.7875,-0.99515 1.75,-1.75 1.586056,-1.24387 1.621426,-1.2085 0.377555,0.37756 C 49.821186,104.91575 49,105.44548 49,104.62244 Z M 75,101.5 c -0.684689,-0.825 -1.019889,-1.5 -0.744889,-1.5 0.275,0 1.0602,0.675 1.744889,1.5 0.684689,0.825 1.019889,1.5 0.744889,1.5 -0.275,0 -1.0602,-0.675 -1.744889,-1.5 z M 99.157895,92 c 0,-1.375 0.226973,-1.9375 0.504386,-1.25 0.277412,0.6875 0.277412,1.8125 0,2.5 -0.277413,0.6875 -0.504386,0.125 -0.504386,-1.25 z M 50,78.622445 c 0,-0.207656 0.7875,-0.995156 1.75,-1.75 C 53.336056,75.628574 53.371426,75.663944 52.127555,77.25 50.821186,78.915748 50,79.445479 50,78.622445 Z M 5.5,54 C 7.6482425,51.8 9.6308955,50 9.9058955,50 10.180896,50 8.6482425,51.8 6.5,54 4.3517575,56.2 2.3691045,58 2.0941045,58 1.8191045,58 3.3517575,56.2 5.5,54 Z M 119.46241,52.75 114.5,47.5 l 5.25,4.962408 C 124.62839,57.073566 125.4586,58 124.71241,58 c -0.15818,0 -2.52068,-2.3625 -5.25,-5.25 z M 30.5,30 c 0.995486,-1.1 2.034975,-2 2.309975,-2 0.275,0 -0.314489,0.9 -1.309975,2 -0.995486,1.1 -2.034975,2 -2.309975,2 -0.275,0 0.314489,-0.9 1.309975,-2 z M 95,29.5 C 94.315311,28.675 93.980111,28 94.255111,28 c 0.275,0 1.0602,0.675 1.744889,1.5 0.684689,0.825 1.019889,1.5 0.744889,1.5 -0.275,0 -1.0602,-0.675 -1.744889,-1.5 z M 45,16.622445 c 0,-0.207656 0.7875,-0.995156 1.75,-1.75 C 48.336056,13.628574 48.371426,13.663944 47.127555,15.25 45.821186,16.915748 45,17.445479 45,16.622445 Z M 80,15.5 C 79.315311,14.675 78.980111,14 79.255111,14 c 0.275,0 1.0602,0.675 1.744889,1.5 0.684689,0.825 1.019889,1.5 0.744889,1.5 -0.275,0 -1.0602,-0.675 -1.744889,-1.5 z"
       id="path4495"
       inkscape:connector-curvature="0" />
    <path
       style="fill:#464855"
       d="m 30.730968,127.34406 c 0.677033,-0.27392 2.027033,-0.29059 3,-0.037 0.972968,0.25354 0.419032,0.47766 -1.230968,0.49804 -1.65,0.0204 -2.446064,-0.18706 -1.769032,-0.46099 z m 62,0 c 0.677033,-0.27392 2.027033,-0.29059 3,-0.037 0.972968,0.25354 0.419032,0.47766 -1.230968,0.49804 -1.65,0.0204 -2.446064,-0.18706 -1.769032,-0.46099 z M 26,34.5 C 27.291745,33.125 28.573628,32 28.848628,32 29.123628,32 28.291745,33.125 27,34.5 25.708255,35.875 24.426372,37 24.151372,37 23.876372,37 24.708255,35.875 26,34.5 Z M 98.404988,32.75 96.5,30.5 98.75,32.404988 C 100.86444,34.195206 101.45524,35 100.65499,35 100.46523,35 99.452731,33.9875 98.404988,32.75 Z M 42,19.622445 c 0,-0.207656 0.7875,-0.995156 1.75,-1.75 C 45.336056,16.628574 45.371426,16.663944 44.127555,18.25 42.821186,19.915748 42,20.445479 42,19.622445 Z M 83,18.5 C 82.315311,17.675 81.980111,17 82.255111,17 c 0.275,0 1.0602,0.675 1.744889,1.5 0.684689,0.825 1.019889,1.5 0.744889,1.5 -0.275,0 -1.0602,-0.675 -1.744889,-1.5 z"
       id="path4493"
       inkscape:connector-curvature="0" />
    <path
       style="fill:#3f404e"
       d="m 38.272304,127.2702 c 2.074768,-0.21647 5.224768,-0.21284 7,0.008 1.775233,0.22091 0.0777,0.39803 -3.772304,0.39359 -3.85,-0.004 -5.302463,-0.18518 -3.227696,-0.40166 z m 44,0 c 2.074768,-0.21647 5.224768,-0.21284 7,0.008 1.775233,0.22091 0.0777,0.39803 -3.772304,0.39359 -3.85,-0.004 -5.302463,-0.18518 -3.227696,-0.40166 z M 21,39.622445 c 0,-0.207656 0.7875,-0.995156 1.75,-1.75 C 24.336056,36.628574 24.371426,36.663944 23.127555,38.25 21.821186,39.915748 21,40.445479 21,39.622445 Z M 102.40499,36.75 100.5,34.5 l 2.25,1.904988 c 1.2375,1.047743 2.25,2.060243 2.25,2.25 0,0.800253 -0.80479,0.209457 -2.59501,-1.904988 z"
       id="path4491"
       inkscape:connector-curvature="0" />
    <path
       style="fill:#343645"
       d="m 31.216216,127.3041 -17.283784,-0.35162 -0.966216,-2.54134 C 12.427362,122.99385 12,109.37363 12,93.617389 V 65.364977 L 6.75,64.432489 C -2.4274984,62.80241 -1.8295738,61.817001 22.265102,38.862853 52.25139,10.295974 62.784771,0.75853898 63.909422,1.1560605 65.190854,1.6089981 83.946326,18.961255 107.25,41.254056 118.50053,52.016558 126,59.938444 126,61.060173 c 0,2.558965 -3.58868,4.26826 -7.59595,3.617969 l -3.32165,-0.53903 -0.2912,30.38182 c -0.17795,18.566178 -0.68011,30.748818 -1.2912,31.325478 -1.11388,1.05112 -55.184409,2.009 -82.283784,1.45769 z M 54.292062,99.5 c 7.525757,-9.286516 27.51925,-36.009151 29.421904,-39.324335 1.430989,-2.493354 1.490509,-3.224361 0.372245,-4.571787 -2.2188,-2.67349 -5.596808,-1.888501 -9.235311,2.146122 -4.294995,4.762588 -22.043196,27.674426 -28.178713,36.376991 -4.912344,6.967629 -5.461501,8.683699 -3.429211,10.715989 2.517347,2.51734 6.072183,0.79834 11.049086,-5.34298 z m 38.810055,4.23007 C 99.646617,99.358057 101.7832,89.811668 97.565054,83.789416 91.501019,75.131792 78.070306,76.330314 72.79311,86 c -6.616076,12.122985 8.694315,25.48918 20.309007,17.73007 z M 82.2,94.8 C 80.379839,92.979839 80.760324,90.281284 83.064692,88.667241 87.040119,85.882744 91.027575,89.187037 89.5,94 c -0.722595,2.276696 -5.31953,2.78047 -7.3,0.8 z M 48.695666,80.044003 C 53.334366,77.215608 55.384615,73.523966 55.384615,68 c 0,-8.199135 -5.886776,-13.989085 -14.230323,-13.996262 -5.559125,-0.0048 -9.840241,2.513821 -12.249463,7.206424 C 23.77337,71.205046 30.051597,81.992524 41,81.992524 c 2.700339,0 5.778025,-0.779262 7.695666,-1.948521 z m -11.15283,-9.99667 c -1.803748,-1.993119 -1.803748,-2.101547 0,-4.094666 2.189263,-2.419108 6.24652,-2.265455 7.851187,0.297333 2.668511,4.261836 -4.356085,7.659378 -7.851187,3.797333 z"
       id="path4489"
       inkscape:connector-curvature="0" />
  </g>
</svg>
