<?xml version="1.0" encoding="UTF-8" standalone="no"?>
<!-- Created with Inkscape (http://www.inkscape.org/) -->

<svg
   xmlns:dc="http://purl.org/dc/elements/1.1/"
   xmlns:cc="http://creativecommons.org/ns#"
   xmlns:rdf="http://www.w3.org/1999/02/22-rdf-syntax-ns#"
   xmlns:svg="http://www.w3.org/2000/svg"
   xmlns="http://www.w3.org/2000/svg"
   xmlns:sodipodi="http://sodipodi.sourceforge.net/DTD/sodipodi-0.dtd"
   xmlns:inkscape="http://www.inkscape.org/namespaces/inkscape"
   version="1.1"
   id="svg2"
   width="129"
   height="104"
   viewBox="0 0 129 104"
   sodipodi:docname="logo.svg"
   inkscape:version="0.92.1 r15371">
  <metadata
     id="metadata8">
    <rdf:RDF>
      <cc:Work
         rdf:about="">
        <dc:format>image/svg+xml</dc:format>
        <dc:type
           rdf:resource="http://purl.org/dc/dcmitype/StillImage" />
        <dc:title></dc:title>
      </cc:Work>
    </rdf:RDF>
  </metadata>
  <defs
     id="defs6" />
  <sodipodi:namedview
     pagecolor="#ffffff"
     bordercolor="#666666"
     borderopacity="1"
     objecttolerance="10"
     gridtolerance="10"
     guidetolerance="10"
     inkscape:pageopacity="0"
     inkscape:pageshadow="2"
     inkscape:window-width="1249"
     inkscape:window-height="695"
     id="namedview4"
     showgrid="false"
     inkscape:zoom="2.2692308"
     inkscape:cx="64.5"
     inkscape:cy="52"
     inkscape:window-x="334"
     inkscape:window-y="213"
     inkscape:window-maximized="0"
     inkscape:current-layer="svg2" />
  <g
     id="g4487"
     transform="translate(0.44067751)">
    <path
       style="fill:#f3f3f3;stroke-width:1.00091934"
       d="m 72.514711,70 c -0.997317,-1.1 -2.038719,-2 -2.314224,-2 -0.275506,0 0.315067,0.9 1.312384,2 0.997317,1.1 2.038718,2 2.314224,2 0.275506,0 -0.315067,-0.9 -1.312384,-2 z M 2.2798038,33.152059 4.1773378,30.5 1.8345362,32.722222 c -1.28853585,1.222222 -2.14242366,2.415649 -1.897524,2.65206 0.24488964,0.23641 1.2991453,-0.76359 2.3427916,-2.222223 z m 4.8022673,1.164827 c -0.7231978,-0.288871 -1.5872844,-0.253344 -1.9201956,0.07895 -0.3329013,0.332292 0.2588152,0.568641 1.3149143,0.52522 1.1670928,-0.04798 1.4044787,-0.284941 0.6052813,-0.604167 z M 30.437453,26 c -0.997317,-1.1 -2.038723,-2 -2.314229,-2 -0.275506,0 0.315069,0.9 1.31239,2 0.997317,1.1 2.038718,2 2.314224,2 0.275506,0 -0.315067,-0.9 -1.312385,-2 z"
       id="path4501"
       inkscape:connector-curvature="0" />
    <path
       style="fill:#ebebeb;stroke-width:1.00091934"
       d="m 119.69635,78.75 1.90849,-2.25 -2.25413,1.904988 C 117.23237,80.195206 116.64049,81 117.44221,81 c 0.19011,0 1.20447,-1.0125 2.25414,-2.25 z M 37.19987,23.337719 c -0.688765,-0.277412 -1.815834,-0.277412 -2.504599,0 -0.688764,0.277413 -0.12523,0.504386 1.252299,0.504386 1.37753,0 1.941064,-0.226973 1.2523,-0.504386 z"
       id="path4499"
       inkscape:connector-curvature="0" />
    <path
       style="fill:#e3e3e3;stroke-width:1.00091934"
       d="m 58.910786,97.416667 c -0.04807,-1.164943 -0.285465,-1.4019 -0.605279,-0.604167 -0.289402,0.721875 -0.25381,1.584375 0.0791,1.916667 0.332903,0.332291 0.569687,-0.258334 0.526186,-1.3125 z M 115.68899,82.75 l 1.9085,-2.25 -2.25414,1.904988 C 113.22501,84.195206 112.63313,85 113.43486,85 c 0.1901,0 1.20446,-1.0125 2.25413,-2.25 z M 30.938373,59.622445 c 0,-0.207656 -0.788948,-0.995156 -1.753219,-1.75 C 27.596177,56.628574 27.560742,56.663944 28.8069,58.25 c 1.308777,1.665748 2.131473,2.195479 2.131473,1.372445 z M 38.139094,7.316886 c -0.723203,-0.2888706 -1.587289,-0.2533443 -1.920192,0.078947 -0.332903,0.3322917 0.258809,0.5686404 1.314914,0.5252193 1.167086,-0.047984 1.404479,-0.28494 0.605278,-0.6041663 z"
       id="path4497"
       inkscape:connector-curvature="0" />
    <path
       style="fill:#d7d7d7;stroke-width:1.00091934"
       d="m 76.271609,96.337719 c -0.688765,-0.277412 -1.815834,-0.277412 -2.504599,0 -0.688765,0.277413 -0.12523,0.504386 1.252299,0.504386 1.37753,0 1.941064,-0.226973 1.2523,-0.504386 z M 49.159328,71.316886 c -0.723203,-0.288871 -1.587289,-0.253344 -1.920192,0.07895 -0.332903,0.332292 0.258809,0.568641 1.314914,0.52522 1.167086,-0.04798 1.404479,-0.284941 0.605278,-0.604167 z M 25.929176,54.5 C 24.63505,53.125 23.350812,52 23.075306,52 c -0.275506,0 0.557904,1.125 1.85203,2.5 1.294127,1.375 2.578365,2.5 2.85387,2.5 0.275506,0 -0.557904,-1.125 -1.85203,-2.5 z M 112.58829,38 c -0.99732,-1.1 -2.03872,-2 -2.31423,-2 -0.2755,0 0.31507,0.9 1.31239,2 0.99732,1.1 2.03872,2 2.31422,2 0.27551,0 -0.31506,-0.9 -1.31238,-2 z M 62.997236,9.6224447 c 0,-0.2076554 -0.788949,-0.9951554 -1.753219,-1.75 C 59.655043,6.6285741 59.619608,6.6639444 60.865767,8.25 c 1.308772,1.665748 2.131469,2.195479 2.131469,1.3724447 z"
       id="path4495"
       inkscape:connector-curvature="0" />
    <path
       style="fill:#c7c7c7;stroke-width:1.00091934"
       d="m 28.369366,17.293128 c 0.543679,-1.425198 0.428607,-1.540062 -0.560829,-0.559795 -0.684678,0.678334 -0.992493,1.485241 -0.684036,1.793128 0.308456,0.307888 0.868645,-0.247112 1.244865,-1.233333 z"
       id="path4493"
       inkscape:connector-curvature="0" />
    <path
       style="fill:#bbbbbb;stroke-width:1.00091934"
       d="m 68.006433,82.5 c 0.685949,-0.825 1.021765,-1.5 0.746259,-1.5 -0.275506,0 -1.06215,0.675 -1.748098,1.5 -0.685949,0.825 -1.021765,1.5 -0.74626,1.5 0.275506,0 1.062151,-0.675 1.748099,-1.5 z M 128.65891,70.933469 c 0.36321,-0.586592 0.44551,-1.281 0.1829,-1.543128 -0.26261,-0.262129 -0.74444,0.21781 -1.07072,1.066531 -0.67743,1.762107 -0.10004,2.072058 0.88782,0.476597 z M 73.01563,69.5 C 71.721509,68.125 70.437268,67 70.161762,67 c -0.275505,0 0.557908,1.125 1.852029,2.5 1.294121,1.375 2.578362,2.5 2.853868,2.5 0.275506,0 -0.557908,-1.125 -1.852029,-2.5 z M 34.945731,62.622445 c 0,-0.207656 -0.788949,-0.995156 -1.753219,-1.75 -1.588974,-1.243871 -1.624409,-1.208501 -0.37825,0.377555 1.308772,1.665748 2.131469,2.195479 2.131469,1.372445 z m -22.040468,-26 c 0,-0.207656 -0.788949,-0.995156 -1.753219,-1.75 C 9.5630664,33.628574 9.5276313,33.663944 10.773789,35.25 c 1.308773,1.665748 2.131474,2.195479 2.131474,1.372445 z m 19.03495,-10 c 0,-0.207656 -0.788949,-0.995156 -1.753219,-1.75 -1.588978,-1.243871 -1.624413,-1.208501 -0.37825,0.377555 1.308772,1.665748 2.131469,2.195479 2.131469,1.372445 z M 44.150131,0.31688596 c -0.723203,-0.28887061 -1.587289,-0.25334429 -1.920193,0.0789474 -0.332902,0.33229167 0.25881,0.56864035 1.314915,0.5252193 1.167086,-0.0479839 1.404478,-0.2849403 0.605278,-0.6041667 z"
       id="path4491"
       inkscape:connector-curvature="0" />
    <path
       style="fill:#b4b4b4;stroke-width:1.00091934"
       d="m 60.978216,100.88486 c 0.01862,-3.175182 3.535121,-7.89684 5.848631,-7.853057 0.924278,0.01749 2.555621,0.692492 3.625206,1.5 2.881354,2.175346 6.652128,1.818344 21.512925,-2.036755 15.554872,-4.035151 18.164112,-5.425322 28.648722,-15.263694 9.15373,-8.589527 9.11977,-8.149102 1.78249,-23.113195 C 114.591,38.199778 102.3456,27.967085 81.035556,19.555727 68.627147,14.657964 67.055023,13.804122 61.321544,8.8487714 54.411742,2.876745 49.244675,0.85639281 40.947912,0.88256679 28.793004,0.92091215 23.669176,5.7888187 25.504606,15.554528 l 0.645546,3.434774 1.893196,-2.40238 c 2.333868,-2.961588 2.34929,-3.53008 0.139967,-5.159359 C 26.852331,10.446022 26.709439,9.8516436 27.589975,8.959573 28.969651,7.5618247 40.689853,6.4653316 44.377004,7.3890484 48.943284,8.5330074 47.063272,12 41.87667,12 c -4.21371,0 -1.622692,4.283863 3.34352,5.528014 3.679156,0.921714 3.471971,1.698372 -1.143849,4.287845 -5.00186,2.806041 -11.014942,2.852287 -14.50562,0.111561 -1.451835,-1.139919 -2.639706,-1.681246 -2.639706,-1.202948 0,1.415381 7.161711,7.829788 12.022074,10.767605 5.052713,3.054082 7.020175,5.148495 6.997535,7.449053 -0.04314,4.383678 -1.366848,4.203772 -17.817842,-2.421632 C 19.229375,32.933774 10.908697,30 9.6424121,30 8.3761171,30 6.2253781,30.7875 4.8630067,31.75 L 2.3859486,33.5 6.8942262,34 c 4.2752298,0.474154 4.6607378,0.78431 7.4576628,6 3.333811,6.216884 19.349441,22.651822 27.119024,27.829033 5.897115,3.929504 8.489072,3.879389 19.656417,-0.380056 l 7.209118,-2.7497 3.88831,4.160819 3.888311,4.16082 -7.004524,7.934367 C 65.256056,85.319184 61.403338,90.242131 60.54695,91.895165 58.789386,95.287678 58.543473,99.763116 59.991717,102 c 0.763408,1.17912 0.97444,0.94057 0.986499,-1.11514 z M 33.943892,19 c 0,-0.55 -0.450828,-1 -1.00184,-1 -0.551012,0 -1.001839,0.45 -1.001839,1 0,0.55 0.450827,1 1.001839,1 0.551012,0 1.00184,-0.45 1.00184,-1 z"
       id="path4489"
       inkscape:connector-curvature="0" />
  </g>
</svg>
