<?xml version="1.0" encoding="UTF-8"?>
<!DOCTYPE svg PUBLIC "-//W3C//DTD SVG 1.1//EN" "http://www.w3.org/Graphics/SVG/1.1/DTD/svg11.dtd">
<!-- Creator: CorelDRAW X7 -->
<svg xmlns="http://www.w3.org/2000/svg" xml:space="preserve" width="119.746mm" height="26.9562mm" version="1.1" style="shape-rendering:geometricPrecision; text-rendering:geometricPrecision; image-rendering:optimizeQuality; fill-rule:evenodd; clip-rule:evenodd"
viewBox="0 0 11804 2657"
 xmlns:xlink="http://www.w3.org/1999/xlink">
 <defs>
  <style type="text/css">
   <![CDATA[
    .fil0 {fill:#0392D5;fill-rule:nonzero}
   ]]>
  </style>
 </defs>
 <g id="Слой_x0020_1">
  <metadata id="CorelCorpID_0Corel-Layer"/>
  <path class="fil0" d="M10863 0l-422 243 -416 -243 0 603 -522 -302 -1 487 -418 239 522 302 -522 301 421 244 -2 482 522 -302 0 603 416 -242 422 242 0 -603 522 302 -2 -482 421 -244 -522 -301 522 -302 -418 -239 -1 -487 -522 302 0 -603zm-10863 607l816 469 804 -469 0 1443 -289 0 0 -932 -521 285 -521 -285 0 932 -289 0 0 -1443zm7105 0l1223 0 -415 645 504 798 -1312 0 0 -282 771 0 -313 -502 244 -377 -702 0 0 -282zm-577 1161l0 -879 -867 0 0 879 867 0zm288 -1161l0 1443 -1443 0 0 -1443 1443 0zm-2021 752l0 -470 -866 0 0 470 866 0zm-1154 -752l1443 0 0 1035 -1155 0 0 408 -288 0 0 -1443zm-578 1161l0 -879 -866 0 0 879 866 0zm289 -1161l0 1443 -1443 0 0 -1443 1443 0z"/>
 </g>
</svg>
