<?xml version="1.0" encoding="UTF-8"?>
<!-- Generator: Adobe Illustrator 18.0.0, SVG Export Plug-In . SVG Version: 6.00 Build 0)  -->
<!DOCTYPE svg PUBLIC "-//W3C//DTD SVG 1.1//EN" "http://www.w3.org/Graphics/SVG/1.1/DTD/svg11.dtd">
<svg version="1.1" id="Layer_1" xmlns="http://www.w3.org/2000/svg" xmlns:xlink="http://www.w3.org/1999/xlink" x="0px" y="0px" viewBox="0 0 32 32" enable-background="new 0 0 32 32" xml:space="preserve">
<g>
	<g>
		<defs>
			<circle id="SVGID_1_" cx="16" cy="16" r="15.9"/>
		</defs>
		<clipPath id="SVGID_2_">
			<use xlink:href="#SVGID_1_" overflow="visible"/>
		</clipPath>
		<g clip-path="url(#SVGID_2_)">
			<rect x="0.1" y="0" fill="#455AA4" width="31.8" height="31.9"/>
			<g>
				<polygon fill="none" points="32,28.4 32,3.6 19.6,16     "/>
				<polygon fill="none" points="0.1,3.6 0.1,28.5 12.6,16     "/>
				<polygon fill="none" points="3.7,31.9 28.5,31.9 16.1,19.5     "/>
				<polygon fill="none" points="28.6,0 3.6,0 16.1,12.5     "/>
				<polygon fill="#F8F8F8" points="16.1,19.5 28.5,31.9 30.8,31.9 17.2,18.4     "/>
				<polygon fill="#F8F8F8" points="13.2,15.4 0.1,2.4 0.1,3.6 12.6,16     "/>
				<polygon fill="#F8F8F8" points="16.1,12.5 3.6,0 1.3,0 14.9,13.6     "/>
				<polygon fill="#F8F8F8" points="19.6,16 19,16.6 32,29.6 32,28.4     "/>
				<polygon fill="#EB6468" points="14.9,13.6 1.3,0 0.1,0 0.1,2.4 13.2,15.4     "/>
				<polygon fill="#EB6468" points="17.2,18.4 30.8,31.9 32,31.9 32,29.6 19,16.6     "/>
				<polygon fill="#F8F8F8" points="17.2,18.4 19,16.6 19.6,16 32,3.6 32,1.4 16.8,16.5 15,14.7 29.7,0 28.6,0 16.1,12.5 14.9,13.6       13.2,15.4 12.6,16 0.1,28.5 0.1,30.7 15.5,15.4 17.2,17.1 2.4,31.9 3.7,31.9 16.1,19.5     "/>
				<polygon fill="#EB6468" points="17.2,17.1 15.5,15.4 0.1,30.7 0.1,31.9 2.4,31.9     "/>
				<polygon fill="#EB6468" points="15,14.7 16.8,16.5 32,1.4 32,0 29.7,0     "/>
			</g>
			<path fill="#F8F8F8" d="M19.9,31.9h-7.6V0.1h7.6L19.9,31.9L19.9,31.9z"/>
			<path fill="#F8F8F8" d="M32,12.2v7.6H0.1v-7.6C0.1,12.2,32,12.2,32,12.2z"/>
			<path fill="#EB6468" d="M0.1,18.5v-4.9H32v4.9H0.1z"/>
			<path fill="#EB6468" d="M18.5,31.9h-4.9V0.1h4.9V31.9z"/>
		</g>
	</g>
</g>
</svg>