<?xml version="1.0" encoding="UTF-8"?>
<!-- Generator: Adobe Illustrator 16.0.0, SVG Export Plug-In . SVG Version: 6.00 Build 0)  -->
<!DOCTYPE svg PUBLIC "-//W3C//DTD SVG 1.1//EN" "http://www.w3.org/Graphics/SVG/1.1/DTD/svg11.dtd">
<svg version="1.1" id="Layer_1" xmlns="http://www.w3.org/2000/svg" xmlns:xlink="http://www.w3.org/1999/xlink" x="0px" y="0px" width="32px" height="32px" viewBox="0 0 32 32" enable-background="new 0 0 32 32" xml:space="preserve">
<g>
	<path fill="#E9E8E9" d="M16.016,32C24.801,32,32,24.801,32,16.014C32,7.199,24.801,0,16.016,0C7.2,0,0,7.199,0,16.014   C0,24.801,7.199,32,16.016,32L16.016,32z"/>
	<path fill="#177298" d="M31.716,13.009H15.986V0c-2.125,0-4.139,0.425-5.98,1.162v11.847H0.284C0.114,13.973,0,14.965,0,16.014   c0,1.021,0.114,2.012,0.284,2.977h9.722v11.848C11.848,31.574,13.859,32,15.986,32V18.99h15.73C31.915,18.025,32,17.034,32,16.014   C32,14.965,31.915,13.973,31.716,13.009L31.716,13.009z"/>
</g>
</svg>