<?xml version="1.0" encoding="UTF-8"?>
<!-- Generator: Adobe Illustrator 16.0.0, SVG Export Plug-In . SVG Version: 6.00 Build 0)  -->
<!DOCTYPE svg PUBLIC "-//W3C//DTD SVG 1.1//EN" "http://www.w3.org/Graphics/SVG/1.1/DTD/svg11.dtd">
<svg version="1.1" id="Layer_1" xmlns="http://www.w3.org/2000/svg" xmlns:xlink="http://www.w3.org/1999/xlink" x="0px" y="0px" width="32px" height="32px" viewBox="0 0 32 32" enable-background="new 0 0 32 32" xml:space="preserve">
<g>
	<path fill="#EABD56" d="M16.016,32C24.801,32,32,24.801,32,16.014C32,7.2,24.801,0,16.016,0C7.2,0,0,7.199,0,16.014   C0,24.801,7.199,32,16.016,32L16.016,32z"/>
	<path fill="#177298" d="M10.005,18.99H0.283c1.021,5.412,4.732,9.836,9.722,11.848V18.99z M10.005,13.009V1.162   C5.016,3.175,1.303,7.624,0.283,13.009H10.005z M15.984,0v13.009h15.73C30.326,5.611,23.809,0,16.014,0C15.984,0,15.984,0,15.984,0   L15.984,0z M15.984,18.99V32c0,0,0,0,0.029,0c7.795,0,14.313-5.584,15.701-13.01H15.984L15.984,18.99z"/>
</g>
</svg>