<?xml version="1.0" encoding="UTF-8"?>
<!-- Generator: Adobe Illustrator 19.2.1, SVG Export Plug-In . SVG Version: 6.00 Build 0)  -->
<svg version="1.1" id="Layer_1" xmlns="http://www.w3.org/2000/svg" xmlns:xlink="http://www.w3.org/1999/xlink" x="0px" y="0px" viewBox="0 0 48 48" style="enable-background:new 0 0 48 48;" xml:space="preserve">
<style type="text/css">
	.st0{fill:none;stroke:#2EB26B;stroke-width:2;stroke-linecap:round;stroke-linejoin:round;stroke-miterlimit:10;}
	.st1{fill:none;stroke:#2EB36B;stroke-width:2;stroke-linecap:round;stroke-linejoin:round;stroke-miterlimit:10;}
	.st2{fill:none;stroke:#2EB36B;stroke-width:3;stroke-linecap:round;stroke-linejoin:round;stroke-miterlimit:10;}
	.st3{fill:none;stroke:#2EB36B;stroke-width:2.4;stroke-linecap:round;stroke-linejoin:round;stroke-miterlimit:10;}
</style>
<g id="user">
	<path class="st0" d="M23.7,28.5c5.1,0,8.5-6.8,9-8.5c0-0.1,0.8-0.5,0.9-0.6c2.8-4.9-0.3-5.5-0.3-5.5s0.1-2.6-0.5-5c0,0-1.6-6-9.1-6   s-9.1,6-9.1,6c-0.6,2.4-0.5,5-0.5,5s-3,0.6-0.3,5.5c0.1,0.1,0.8,0.5,0.9,0.6C15.2,21.7,18.6,28.5,23.7,28.5z"/>
	<path class="st0" d="M28.4,27c0,0,1.9,1.9,5.7,3.1c5.3,1.7,9.8,4.8,10.1,13c0,0-8.5,1.8-20.5,1.8S3.2,43.1,3.2,43.1   c0.4-8.2,4.9-11.4,10.1-13C17,29,19,27,19,27"/>
</g>
</svg>